<?xml version="1.0" encoding="UTF-8"?>
<svg version="1.1" viewBox="0 0 720 720" xmlns="http://www.w3.org/2000/svg">
 <g class="spin">
  <g id="spiro_1.73205080756888_1_1_1722">
   <path d="m693.33 360-24.047 0.95703-68.34 6.3594-101.88 15.504-119.54 25.477-118.87 32.785-100.48 34.207-67.875 27.629-26.75 12.629 16.039-9.2266 53.68-34.566 80.586-58.777 93.301-76.867 90.98-84.457 75.387-78.762 50.41-59.238 21.184-27.906-6.9023 10.902-29.242 51.16-42.848 86.172-46.738 109.77-42 117.44-31.336 107.2-18.383 80.043-6.8125 39.836 0.51172-7.2578 2.1484-53.848-1.6406-92.512-8.9883-117.14-16.91-123.9-22.086-111.96-21.641-83.543-13.965-43.531 0.82422 1.4297 20.746 44.105 42.258 77.914 60.887 98.051 72.168 102.21 72.582 90.891 60.398 67.129 36.176 35.84 2.8672 2.8203-34.586-26.371-70.047-47.375-97.258-57.766-111-57.355-108.11-47.988-88.117-33.062-53.504-16.625-9.3242-2.5039 37.598 6.5117 79.781 9.25 110.41 6.2852 124.5-0.27734 119.78-7.3516 97.031-11.723 60.051-10.816 14.883-3.418-31.195 9.9453-70.938 27.008-98.367 44.199-109.75 57.324-104.16 62.5-83.527 57.07-52.148 40.266-15.824 13.582 19.203-19.352 47.453-53.27 65.066-82.238 70.43-100.69 64.266-104.53 49.332-91.988 29.691-64.07 9.793-24.512-6.4258 20.75-16.379 64.59-19.223 99.848-15.926 120.64-8.9141 123.37-1.4062 107.38 3.4102 75.125 3.1953 31.727-2.9297-15.879-14.145-60.145-28.008-94.215-40.992-113.04-49.25-114.25-49.508-98.426-39.887-68.926-20.469-31.199 6.5352 8.2617 37.055 43.07 65.793 68.105 87.25 80.277 96.742 78.984 91.387 66.023 70.781 45.062 37.227 20.836-4.5234-1.8867-48.02-19.23-86.195-28.898-112.58-30.512-122.48-25.539-113.84-16.797-87.668-7.7148-47.902-1.4648-0.75781-0.21484 46.312-4.5859 85.887-13.484 111.86-24.363 120.43-33.785 110.75-38.262 84.977-35.074 47.828-23.047 5.6875-2.9258-34.539 22.555-66.656 49.105-86.188 71.652-91.078 85.305-81.922 86.359-61.645 73.16-34.832 46.559-6.7812 9.9297 17.594-31.273 34.602-70.434 42.43-100.9 41.32-117.17 33.336-115.96 21.746-96.797 10.234-62.246 1.9922-17.52-0.97656 30.426 1.6758 73.98 8.6328 106.26 17.238 122.24 24.145 119.61 26.184 99.145 21.125 64.527 8.3672 21.637-10.816-22.465-33.375-60.816-55.023-87.719-71.043-99.68-77.277-95.891-71.047-78.23-51.836-50.781-21.578-18.953 15.539 11.578 53.699 35.918 86.445 50.812 107.84 55.117 113.58 49.82 101.84 37.676 73.742 22.477 33.203 8.1328-13.617-2.1406-59.344-6.5625-96.664-5.0547-119.56 0.79297-124.38 8.1875-110.42 13.855-80.094 14.855-38.445 9.3984 7.707-2.6836 50.996-19.738 84.766-38.559 104.16-54.992 106.91-64.793 93.629-64.598 67.531-52.699 33.766-29.586-1.6094 1.9492-32.746 37.188-55.055 70.258-65.926 95.148-65.062 106.88-54.355 102.46-37.301 81.559-18.199 46.695-1.1758 2.9102 10.633-43.023 15.715-83.75 14.352-112.59 8.4531-124.7 1.0156-117.98-4.6953-93.41-5.9492-54.918-1.2617-8.6797 9.1758 37.902 23.449 77.523 38.309 104.18 49.824 114.2 54.289 106.73 49.082 83.883 33.383 50.148 8.5273 11.594-22.094-25.309-53.492-54.84-80.016-72.957-96.352-77.961-98.613-70.57-85.148-53.648-57.027-31.457-17.969-8.7461 26.191 10.242 68.441 22.566 101.8 27.098 120.56 24.586 121.3 17.344 103.53 8.6211 69.863 1.7305 25.523-0.73438-22.465 2.4453-66.508 10.785-99.754 22.203-117.21 33.445-116.6 40.863-98.652 41.254-66.93 32.707-27.09 15.133 14.133-9.4844 50.168-37.363 75.711-63.527 87.574-82.754 85.16-90.57 70.332-84.258 46.961-63.469 20.02-30.484-5.4102 10.051-25.121 51.84-36.523 87.988-39.027 112.25-33.957 120.12-24.129 109.73-13.078 82.219-4.2266 41.617-0.035156-5.7852-1.4805-52.512-7.8359-91.18-16.844-115.73-25.297-122.51-29.793-110.79-27.605-82.906-17.41-43.773 0.27734 0.019531 23.027 41.383 46.883 73.965 67.059 93.215 78.93 97.059 78.953 86.152 65.559 63.59 39.562 34.188 4.2422 3.5234-35.125-23.18-72.145-41.949-100.38-50.738-114.56-49.645-111.56-40.703-91.098-27.281-55.812-13.258-10.941-2.1172 36.531 3.7891 79.074 3.7539 109.88-1.2227 124.04-8.7188 119.41-15.523 96.926-18.461 60.441-15.188 16.027-4.875-29.098 11.516-67.852 31.27-94.461 50.418-105.41 64.523-99.969 69.633-80.145 63.152-50.238 44.559-15.91 15.668 16.883-19.512 42.965-55.395 58.863-85.789 63.277-104.99 57.152-108.91 43.309-95.871 25.707-67.09 8.5469-26.516-4.6484 19.707-11.727 64.301-12.289 100.05-7.6719 121.09-0.51562 123.9 5.9297 107.98 8.6406 75.902 5.5977 32.863-3.6523-14.199-17.816-57.797-34.02-91.219-48.402-109.61-56.965-110.78-56.434-95.441-45.121-67.008-23.406-30.871 6.1055 6.6719 38.953 39.5 69.539 62.816 92.121 73.863 101.95 72.281 96.203 60.004 74.648 40.68 39.828 18.855-3.25-1.0273-47.918-15.5-86.957-22.715-113.85-22.688-123.95-17.164-115.3-9.0742-89.051-1.7578-49.27 1.8477-2.2578-0.011719 44.516-7.4961 83.719-19.047 109.35-31.73 117.81-41.871 108.37-45.898 83.305-41.211 47.324-26.914 6.7266-4.125-31.797 24-62.305 52.793-80.633 76.875-84.996 91.203-76.156 92.074-57.098 77.949-32.305 49.93-6.8164 11.668 14.801-31.102 29.293-71.539 35.242-102.86 33.219-119.53 25.461-118.33 15.262-98.941 6.1016-64.086 0.84766-19.09 1.0469 28.965 6.5898 72.488 15.715 104.64 25.445 120.54 32.297 118.01 33.129 97.949 25.93 64.102 10.453 22.344-11.602-20.395-36.758-57.355-60.355-83.094-77.445-94.379-83.781-90.609-76.77-73.773-56.09-47.93-23.98-18.316 15.055 9.6758 54.902 31.543 88.887 44.422 110.98 47.516 116.88 42.055 104.88 30.883 76.242 17.676 35.098 6.0977-12.246-1.0547-58.336-2.457-95.828 1.5078-118.79 8.8789-123.66 16.633-109.89 21.449-79.992 20.543-39.07 12.426 6.1172-2.6562 48.312-22.59 81.062-43.75 99.742-61.664 102.31-71.938 89.508-71.191 64.605-57.887 32.656-32.805-0.48828 0.92578-29.305 38.238-49.562 72.961-59.012 98.91-57.648 111.04-47.496 106.42-32.043 84.879-15.391 49.129-1.332 4.4375 7.4375-42.266 9.8594-83.531 6.6328-112.66-0.03125-124.91-7.0273-118.27-11.148-93.859-9.9023-55.699-2.2031-10.027 11.309 35.828 28.258 74.68 45.008 100.7 57.398 110.42 61.629 103.17 55.191 81.125 37.512 48.801 10.273 12.109-22.746-22.723-56.207-50.281-84.191-66.887-101.25-71.113-103.48-63.902-89.371-48.16-60.191-28.047-19.895-8.043 25.438 7.9883 68.625 17.562 102.61 19.965 121.67 16.305 122.49 9.0898 104.71 1.5781 71.055-3.0742 26.871-2.6172-20.793 3.7188-64.387 14.996-97.18 28.68-114.34 41.211-113.77 48.773-96.312 48.207-65.59 37.773-27.207 17.738 12.27-9.5273 46.523-39.844 70.555-67.883 81.473-88.207 78.914-96.27 64.867-89.414 43.16-67.484 18.598-33.023-4.0703 9.0508-21.039 52.188-30.152 89.34-31.188 114.18-25.738 122.25-16.715 111.76-7.5664 84.023-1.4297 43.215-0.37891-4.2734-4.918-50.934-13.855-89.418-24.551-113.8-33.562-120.54-37.441-109.07-33.578-81.82-20.945-43.738-0.45312-1.3047 25.035 38.555 51.16 69.742 72.852 87.98 85.309 91.445 85.004 80.953 70.504 59.648 42.879 32.234 5.7227 4.043-35.391-20.039-73.82-36.449-102.98-43.547-117.56-41.715-114.52-33.164-93.684-21.242-57.891-9.6484-12.543-1.5234 35.273 1.2422 77.977-1.6055 108.82-8.625 122.99-17.098 118.47-23.676 96.332-25.23 60.5-19.66 17.039-6.5-26.934 12.852-64.512 35.227-90.156 56.301-100.59 71.395-95.27 76.469-76.309 69.027-47.977 48.766-15.77 17.824 14.621-19.445 38.406-57.156 52.477-88.867 55.859-108.77 49.734-112.78 36.977-99.344 21.445-69.848 7.0664-28.453-3.043 18.523-7.1836 63.672-5.4141 99.762 0.56641 120.95z" fill="#4069e0" fill-rule="evenodd"/>
  </g>
 </g>
</svg>
