<?xml version="1.0" encoding="UTF-8"?>
<svg version="1.1" viewBox="0 0 720 720" xmlns="http://www.w3.org/2000/svg">
 <g class="spin">
  <g id="spiro_6_5_5_59721" fill-rule="evenodd">
   <path d="m693.33 360h-0.089843l-0.11328 0.003906-0.16016 0.007813-0.20703 0.007812-0.25 0.015625-0.29688 0.019532-0.33984 0.027343-0.38672 0.035157-0.43359 0.042968-0.47266 0.050782-0.51953 0.0625-0.56641 0.074218-0.60547 0.089844-0.65234 0.097656-0.69141 0.11328-0.73438 0.12891-0.77734 0.14453-0.82031 0.16016-0.85938 0.17969-0.90234 0.19531-0.94141 0.21484-0.98047 0.23828-1.0195 0.25391-1.0586 0.27734-1.0938 0.30078-1.1328 0.32422-1.1719 0.34766-1.2031 0.37109-1.2422 0.39453-1.2734 0.42188-1.3086 0.44922-1.3438 0.47656-1.375 0.50391-1.4023 0.53125-1.4375 0.55859-1.4648 0.58984-1.4961 0.62109-1.5234 0.65234-1.5508 0.67969-1.5781 0.71094-1.6016 0.74609-1.6289 0.77734-1.6523 0.80859-1.6719 0.84375-1.6992 0.87891-1.7148 0.91016-1.7383 0.94141-1.7578 0.98047-1.7734 1.0117-1.793 1.0508-1.8086 1.082-1.8203 1.1172-1.8398 1.1562-1.8516 1.1875-1.8633 1.2266-1.8711 1.2617-1.8867 1.2969-1.8945 1.332-1.9023 1.3672-1.9062 1.4023-1.918 1.4414-1.9219 1.4766-1.9219 1.5117-1.9297 1.5469-1.9297 1.5781-1.9297 1.6172-1.9336 1.6523-1.9297 1.6875-1.9297 1.7188-1.9258 1.7539-1.9219 1.7891-1.918 1.8242-1.9102 1.8555-1.9062 1.8867-1.8984 1.918-1.8867 1.9531-1.8789 1.9844-1.8711 2.0117-1.8555 2.0469-1.8477 2.0742-1.832 2.1016-1.8203 2.1328-1.8047 2.1641-1.7852 2.1875-1.7734 2.2148-1.7539 2.2422-1.7383 2.2656-1.7188 2.293-1.6992 2.3164-1.6758 2.3398-1.6602 2.3633-1.6328 2.3828-1.6133 2.4062-1.5938 2.4258-1.5664 2.4453-1.543 2.4609-1.5156 2.4844-1.4922 2.4961-1.4688 2.5156z" fill="#f00"/>
   <path d="m552.33 471.32-1.4375 2.5312-1.4141 2.543-1.3867 2.5586-1.3594 2.5703-1.3281 2.582-1.3008 2.5898-1.2695 2.6016-1.2422 2.6133-1.2148 2.6172-1.1797 2.625-1.1523 2.6289-1.1211 2.6328-1.0898 2.6406-1.0586 2.6406-1.0273 2.6406-0.99609 2.6445-0.96484 2.6406-0.92969 2.6406-0.90234 2.6406-0.86719 2.6328-0.83594 2.6328-0.80469 2.625-0.77344 2.6172-0.73828 2.6094-0.71094 2.6016-0.67578 2.5938-0.64453 2.582-0.61719 2.5664-0.58203 2.5586-0.55078 2.543-0.51953 2.5273-0.48828 2.5117-0.46094 2.4961-0.42969 2.4805-0.39844 2.457-0.37109 2.4414-0.34375 2.418-0.3125 2.3984-0.28516 2.375-0.25391 2.3516-0.23047 2.3242-0.20312 2.3047-0.17578 2.2734-0.15234 2.25-0.125 2.2227-0.097656 2.1914-0.078125 2.1641-0.054688 2.1328-0.027344 2.1055-0.007812 2.0703 0.011719 2.0352 0.035156 2.0078 0.054687 1.9688 0.070313 1.9375 0.09375 1.9023 0.10938 1.8633 0.12891 1.832 0.14062 1.7891 0.16016 1.7539 0.17578 1.7188 0.1875 1.6758 0.19922 1.6367 0.21094 1.5977 0.22656 1.5586 0.23438 1.5195 0.24219 1.4766 0.25391 1.4336 0.25781 1.3906 0.26953 1.3516 0.27344 1.3086 0.27734 1.2656 0.28125 1.2227 0.28516 1.1797 0.28516 1.1328 0.28906 1.0938 0.28906 1.0469 0.28906 1.0039 0.28516 0.96094 0.28125 0.91406 0.28125 0.87109 0.27344 0.82812 0.26953 0.78125 0.26172 0.73828 0.25781 0.69531 0.24609 0.64844 0.23438 0.60547 0.23047 0.5625 0.21484 0.51562 0.20312 0.47656 0.1875 0.42969 0.17578 0.38672 0.16016 0.34766 0.14453 0.30078 0.23828 0.47656 0.09375 0.17578 0.070312 0.13672 0.050781 0.09375 0.03125 0.050781 0.007813 0.015625z" fill="#ff7f00"/>
   <path d="m526.67 648.68-0.015625-0.027343-0.039063-0.066407-0.066406-0.10156-0.089844-0.14453-0.11328-0.17969-0.14453-0.21484-0.16797-0.25391-0.19922-0.28516-0.23047-0.32422-0.25781-0.35938-0.28906-0.39062-0.31641-0.42188-0.35156-0.45703-0.38672-0.48828-0.41406-0.51953-0.45312-0.54688-0.48438-0.57812-0.51953-0.60547-0.55469-0.63281-0.58984-0.66016-0.62891-0.6875-0.66016-0.71094-0.70312-0.73438-0.73828-0.75781-0.77344-0.78125-0.81641-0.80469-0.85156-0.82031-0.89062-0.84375-0.92969-0.86328-0.97266-0.87891-1.0078-0.89453-1.0508-0.91016-1.0898-0.92969-1.1289-0.9375-1.1719-0.95312-1.207-0.96875-1.2539-0.97656-1.2891-0.98438-1.332-0.99609-1.3711-1.0039-1.4141-1.0117-1.4531-1.0156-1.4922-1.0195-1.5352-1.0273-1.5742-1.0273-1.6133-1.0312-1.6523-1.0352-1.6953-1.0312-1.7305-1.0312-1.7734-1.0312-1.8086-1.0273-1.8477-1.0234-1.8867-1.0195-1.9258-1.0117-1.9609-1.0078-2-1-2.0352-0.99219-2.0703-0.98047-2.1094-0.97266-2.1406-0.96094-2.1758-0.94922-2.2109-0.9375-2.2422-0.92188-2.2773-0.91016-2.3086-0.89453-2.3398-0.87891-2.3711-0.85938-2.4023-0.84375-2.4297-0.82422-2.457-0.80859-2.4883-0.78906-2.5156-0.76562-2.5391-0.74609-2.5664-0.72266-2.5938-0.70312-2.6133-0.67969-2.6406-0.65625-2.6602-0.63281-2.6836-0.60547-2.7031-0.58203-2.7227-0.55859-2.7383-0.53125-2.7617-0.50391-2.7734-0.47656-2.793-0.44922-2.8086-0.42578-2.8203-0.39453-2.832-0.36328-2.8477-0.33594-2.8555-0.30859-2.8672-0.28125-2.8789-0.25-2.8828-0.21875-2.8906-0.1875-2.8984-0.16016-2.8984-0.12891-2.9062-0.10156-2.9102-0.066407-2.9102-0.039062-2.9102-0.007813z" fill="#ff0"/>
   <path d="m359.27 582.22-2.9141 0.023438-2.9062 0.054687-2.9102 0.082032-2.9023 0.11328-2.8984 0.14453-2.8945 0.17578-2.8906 0.20312-2.8789 0.23438-2.8711 0.26562-2.8633 0.29297-2.8516 0.32422-2.8398 0.35156-2.8281 0.37891-2.8125 0.41016-2.8008 0.43359-2.7812 0.46484-2.7695 0.49219-2.75 0.51562-2.7305 0.54297-2.7148 0.57031-2.6914 0.59766-2.6719 0.61719-2.6523 0.64453-2.625 0.66797-2.6055 0.69141-2.5781 0.71484-2.5547 0.73438-2.5273 0.75781-2.5 0.77734-2.4727 0.79688-2.4453 0.81641-2.418 0.83203-2.3828 0.85547-2.3555 0.86719-2.3281 0.88672-2.2891 0.90234-2.2617 0.91406-2.2266 0.93359-2.1953 0.94141-2.1562 0.95703-2.125 0.96484-2.0898 0.97656-2.0547 0.98828-2.0156 0.99609-1.9805 1.0039-1.9414 1.0078-1.9062 1.0195-1.8672 1.0195-1.832 1.0273-1.7891 1.0273-1.7539 1.0312-1.7109 1.0312-1.6758 1.0312-1.6328 1.0352-1.5938 1.0273-1.5547 1.0273-1.5117 1.0273-1.4727 1.0156-1.4336 1.0156-1.3945 1.0078-1.3516 1-1.3086 0.98828-1.2734 0.98438-1.2305 0.96875-1.1875 0.96094-1.1523 0.94922-1.1094 0.93359-1.0703 0.91797-1.0273 0.90234-0.99219 0.89062-0.94922 0.86719-0.91016 0.85156-0.87109 0.83594-0.83594 0.8125-0.79297 0.78906-0.75781 0.77344-0.71875 0.74609-0.68359 0.72266-0.64453 0.69922-0.60938 0.67188-0.57031 0.64844-0.53906 0.62109-0.5 0.58984-0.46875 0.5625-0.43359 0.53516-0.40234 0.50391-0.36719 0.46875-0.33594 0.44141-0.30078 0.40625-0.27344 0.375-0.24219 0.33984-0.21484 0.30859-0.18359 0.26953-0.15625 0.23438-0.12891 0.19922-0.10547 0.16016-0.074219 0.12109-0.050781 0.085938-0.027344 0.046875-0.003906 0.003906z" fill="#7fff00"/>
   <path d="m193.34 648.67 0.015625-0.03125 0.042968-0.074219 0.0625-0.11328 0.078125-0.15625 0.10156-0.19531 0.12109-0.23828 0.13281-0.28125 0.15625-0.32422 0.16797-0.36719 0.18359-0.41016 0.19531-0.44922 0.21094-0.49609 0.21875-0.54297 0.23438-0.58203 0.24219-0.62891 0.25-0.67188 0.25781-0.71484 0.26562-0.76172 0.27344-0.80469 0.27734-0.84766 0.28125-0.89453 0.28516-0.9375 0.28516-0.98047 0.28906-1.0273 0.28906-1.0664 0.28516-1.1172 0.28906-1.1562 0.28125-1.1992 0.28125-1.2461 0.27344-1.2852 0.27344-1.3281 0.26172-1.3711 0.25781-1.4141 0.24609-1.457 0.24219-1.4961 0.22656-1.5391 0.21875-1.5781 0.20703-1.6172 0.19531-1.6562 0.17969-1.6992 0.16797-1.7344 0.14844-1.7734 0.13672-1.8086 0.11719-1.8477 0.10156-1.8828 0.085938-1.9219 0.0625-1.9531 0.042969-1.9883 0.023437-2.0195 0.003906-2.0547-0.019531-2.0898-0.039062-2.1172-0.066407-2.1484-0.089843-2.1758-0.11328-2.2109-0.13672-2.2344-0.16406-2.2617-0.1875-2.2891-0.21875-2.3164-0.24219-2.3398-0.26953-2.3633-0.29688-2.3828-0.32812-2.4102-0.35547-2.4297-0.38672-2.4492-0.41406-2.4688-0.44531-2.4883-0.47266-2.5039-0.50781-2.5195-0.53516-2.5352-0.56641-2.5508-0.59766-2.5625-0.62891-2.5742-0.66406-2.5898-0.69141-2.5938-0.72266-2.6094-0.75781-2.6133-0.78906-2.6211-0.82031-2.6289-0.85156-2.6328-0.88672-2.6367-0.91406-2.6406-0.94922-2.6406-0.98047-2.6406-1.0117-2.6445-1.043-2.6406-1.0742-2.6406-1.1055-2.6367-1.1328-2.6328-1.168-2.6289-1.1992-2.6211-1.2266-2.6133-1.2539-2.6055-1.2891-2.5977-1.3125-2.5859-1.3438-2.5742-1.3711-2.5664-1.4023-2.5508-1.4258-2.5352-1.4531-2.5234z" fill="#0f0"/>
   <path d="m166.94 470.06-1.4805-2.5078-1.5039-2.4883-1.5312-2.4766-1.5547-2.4531-1.5781-2.4336-1.6016-2.418-1.625-2.3945-1.6484-2.375-1.668-2.3477-1.6875-2.3281-1.7109-2.3047-1.7266-2.2812-1.7461-2.2539-1.7617-2.2305-1.7812-2.1992-1.7969-2.1758-1.8125-2.1445-1.8242-2.1211-1.8398-2.0898-1.8516-2.0586-1.8633-2.0273-1.875-2-1.8828-1.9688-1.8945-1.9336-1.9023-1.9062-1.9062-1.8711-1.9141-1.8398-1.9219-1.8047-1.9258-1.7695-1.9258-1.7383-1.9297-1.7031-1.9297-1.668-1.9336-1.6367-1.9297-1.5977-1.9297-1.5664-1.9258-1.5273-1.9219-1.4922-1.9219-1.457-1.9102-1.4219-1.9062-1.3867-1.8984-1.3516-1.8906-1.3125-1.8789-1.2812-1.8672-1.2422-1.8594-1.207-1.8438-1.1719-1.8281-1.1367-1.8164-1.1016-1.8008-1.0664-1.7852-1.0312-1.7656-0.99609-1.7461-0.96094-1.7266-0.92578-1.707-0.89453-1.6875-0.85938-1.6641-0.82422-1.6367-0.79297-1.6172-0.76172-1.5898-0.73047-1.5625-0.69531-1.5391-0.66797-1.5078-0.63281-1.4805-0.60547-1.4531-0.57422-1.4219-0.54688-1.3867-0.51953-1.3594-0.48828-1.3242-0.46094-1.293-0.4375-1.2578-0.40625-1.2227-0.38672-1.1875-0.35547-1.1523-0.33594-1.1133-0.3125-1.0781-0.28906-1.0391-0.26562-1-0.24609-0.96094-0.22656-0.92188-0.20703-0.87891-0.1875-0.83984-0.16797-0.79688-0.15234-0.75781-0.13672-0.71484-0.12109-0.67188-0.10547-0.62891-0.09375-0.58594-0.078125-0.53906-0.070312-0.5-0.058594-0.45312-0.046875-0.41016-0.039063-0.36328-0.03125-0.31641-0.023437-0.27344-0.015625-0.23047-0.011719-0.18359-0.007812-0.13672-0.003907-0.089844-0.003906h-0.046875z" fill="#00ff7f"/>
   <path d="m26.672 360h0.046875l0.089844-0.003906 0.13672-0.003906 0.18359-0.007813 0.23047-0.011719 0.27344-0.015625 0.31641-0.023437 0.36328-0.03125 0.41016-0.039063 0.45312-0.046875 0.5-0.058593 0.53906-0.070313 0.58594-0.078125 0.62891-0.09375 0.67188-0.10547 0.71484-0.12109 0.75781-0.13672 0.79688-0.15234 0.83984-0.16797 0.87891-0.1875 0.92188-0.20703 0.96094-0.22656 1-0.24609 1.0391-0.26562 1.0781-0.28906 1.1133-0.3125 1.1523-0.33594 1.1875-0.35547 1.2227-0.38672 1.2578-0.40625 1.293-0.4375 1.3242-0.46094 1.3594-0.48828 1.3867-0.51953 1.4219-0.54688 1.4531-0.57422 1.4805-0.60547 1.5078-0.63281 1.5391-0.66797 1.5625-0.69531 1.5898-0.73047 1.6172-0.76172 1.6367-0.79297 1.6641-0.82422 1.6875-0.85938 1.707-0.89453 1.7266-0.92578 1.7461-0.96094 1.7656-0.99609 1.7852-1.0312 1.8008-1.0664 1.8164-1.1016 1.8281-1.1367 1.8438-1.1719 1.8594-1.207 1.8672-1.2422 1.8789-1.2812 1.8906-1.3125 1.8984-1.3516 1.9062-1.3867 1.9102-1.4219 1.9219-1.457 1.9219-1.4922 1.9258-1.5273 1.9297-1.5664 1.9297-1.5977 1.9336-1.6367 1.9297-1.668 1.9297-1.7031 1.9258-1.7383 1.9258-1.7695 1.9219-1.8047 1.9141-1.8398 1.9062-1.8711 1.9023-1.9062 1.8945-1.9336 1.8828-1.9688 1.875-2 1.8633-2.0273 1.8516-2.0586 1.8398-2.0898 1.8242-2.1211 1.8125-2.1445 1.7969-2.1758 1.7812-2.1992 1.7617-2.2305 1.7461-2.2539 1.7266-2.2812 1.7109-2.3047 1.6875-2.3281 1.668-2.3477 1.6484-2.375 1.625-2.3945 1.6016-2.418 1.5781-2.4336 1.5547-2.4531 1.5312-2.4766 1.5039-2.4883 1.4805-2.5078 1.4531-2.5234z" fill="#0ff"/>
   <path d="m168.39 247.41 1.4258-2.5352 1.4023-2.5508 1.3711-2.5664 1.3438-2.5742 1.3125-2.5859 1.2891-2.5977 1.2539-2.6055 1.2266-2.6133 1.1992-2.6211 1.168-2.6289 1.1328-2.6328 1.1055-2.6367 1.0742-2.6406 1.043-2.6406 1.0117-2.6445 0.98047-2.6406 0.94922-2.6406 0.91406-2.6406 0.88672-2.6367 0.85156-2.6328 0.82031-2.6289 0.78906-2.6211 0.75781-2.6133 0.72266-2.6094 0.69141-2.5938 0.66406-2.5898 0.62891-2.5742 0.59766-2.5625 0.56641-2.5508 0.53516-2.5352 0.50781-2.5195 0.47266-2.5039 0.44531-2.4883 0.41406-2.4688 0.38672-2.4492 0.35547-2.4297 0.32812-2.4102 0.29688-2.3828 0.26953-2.3633 0.24219-2.3398 0.21875-2.3164 0.1875-2.2891 0.16406-2.2617 0.13672-2.2344 0.11328-2.2109 0.089843-2.1758 0.066407-2.1484 0.039062-2.1172 0.019531-2.0898-0.003906-2.0547-0.023437-2.0195-0.042969-1.9883-0.0625-1.9531-0.085938-1.9219-0.10156-1.8828-0.11719-1.8477-0.13672-1.8086-0.14844-1.7734-0.16797-1.7344-0.17969-1.6992-0.19531-1.6562-0.20703-1.6172-0.21875-1.5781-0.22656-1.5391-0.24219-1.4961-0.24609-1.457-0.25781-1.4141-0.26172-1.3711-0.27344-1.3281-0.27344-1.2852-0.28125-1.2461-0.28125-1.1992-0.28906-1.1562-0.28516-1.1172-0.28906-1.0664-0.28906-1.0273-0.28516-0.98047-0.28516-0.9375-0.28125-0.89453-0.27734-0.84766-0.27344-0.80469-0.26562-0.76172-0.25781-0.71484-0.25-0.67188-0.24219-0.62891-0.23438-0.58203-0.21875-0.54297-0.21094-0.49609-0.19531-0.44922-0.18359-0.41016-0.16797-0.36719-0.15625-0.32422-0.13281-0.28125-0.12109-0.23828-0.10156-0.19531-0.078125-0.15625-0.0625-0.11328-0.042968-0.074219-0.015625-0.03125 0.003906 0.003906z" fill="#007fff"/>
   <path d="m193.34 71.332 0.027344 0.046875 0.050781 0.085938 0.074219 0.12109 0.10547 0.16016 0.12891 0.19922 0.15625 0.23438 0.18359 0.26953 0.21484 0.30859 0.24219 0.33984 0.27344 0.375 0.30078 0.40625 0.33594 0.44141 0.36719 0.46875 0.40234 0.50391 0.43359 0.53516 0.46875 0.5625 0.5 0.58984 0.53906 0.62109 0.57031 0.64844 0.60938 0.67188 0.64453 0.69922 0.68359 0.72266 0.71875 0.74609 0.75781 0.77344 0.79297 0.78906 0.83594 0.8125 0.87109 0.83594 0.91016 0.85156 0.94922 0.86719 0.99219 0.89062 1.0273 0.90234 1.0703 0.91797 1.1094 0.93359 1.1523 0.94922 1.1875 0.96094 1.2305 0.96875 1.2734 0.98438 1.3086 0.98828 1.3516 1 1.3945 1.0078 1.4336 1.0156 1.4727 1.0156 1.5117 1.0273 1.5547 1.0273 1.5938 1.0273 1.6328 1.0352 1.6758 1.0312 1.7109 1.0312 1.7539 1.0312 1.7891 1.0273 1.832 1.0273 1.8672 1.0195 1.9062 1.0195 1.9414 1.0078 1.9805 1.0039 2.0156 0.99609 2.0547 0.98828 2.0898 0.97656 2.125 0.96484 2.1562 0.95703 2.1953 0.94141 2.2266 0.93359 2.2617 0.91406 2.2891 0.90234 2.3281 0.88672 2.3555 0.86719 2.3828 0.85547 2.418 0.83203 2.4453 0.81641 2.4727 0.79688 2.5 0.77734 2.5273 0.75781 2.5547 0.73438 2.5781 0.71484 2.6055 0.69141 2.625 0.66797 2.6523 0.64453 2.6719 0.61719 2.6914 0.59766 2.7148 0.57031 2.7305 0.54297 2.75 0.51562 2.7695 0.49219 2.7812 0.46484 2.8008 0.43359 2.8125 0.41016 2.8281 0.37891 2.8398 0.35156 2.8516 0.32422 2.8633 0.29297 2.8711 0.26562 2.8789 0.23438 2.8906 0.20312 2.8945 0.17578 2.8984 0.14453 2.9023 0.11328 2.9102 0.082031 2.9062 0.054687 2.9141 0.023438 2.9102-0.007813z" fill="#00f"/>
   <path d="m362.18 137.77 2.9102-0.039062 2.9102-0.066406 2.9062-0.10156 2.8984-0.12891 2.8984-0.16016 2.8906-0.1875 2.8828-0.21875 2.8789-0.25 2.8672-0.28125 2.8555-0.30859 2.8477-0.33594 2.832-0.36328 2.8203-0.39453 2.8086-0.42578 2.793-0.44922 2.7734-0.47656 2.7617-0.50391 2.7383-0.53125 2.7227-0.55859 2.7031-0.58203 2.6836-0.60547 2.6602-0.63281 2.6406-0.65625 2.6133-0.67969 2.5938-0.70312 2.5664-0.72266 2.5391-0.74609 2.5156-0.76562 2.4883-0.78906 2.457-0.80859 2.4297-0.82422 2.4023-0.84375 2.3711-0.85938 2.3398-0.87891 2.3086-0.89453 2.2773-0.91016 2.2422-0.92188 2.2109-0.9375 2.1758-0.94922 2.1406-0.96094 2.1094-0.97266 2.0703-0.98047 2.0352-0.99219 2-1 1.9609-1.0078 1.9258-1.0117 1.8867-1.0195 1.8477-1.0234 1.8086-1.0273 1.7734-1.0312 1.7305-1.0312 1.6953-1.0312 1.6523-1.0352 1.6133-1.0312 1.5742-1.0273 1.5352-1.0273 1.4922-1.0195 1.4531-1.0156 1.4141-1.0117 1.3711-1.0039 1.332-0.99609 1.2891-0.98438 1.2539-0.97656 1.207-0.96875 1.1719-0.95312 1.1289-0.9375 1.0898-0.92969 1.0508-0.91016 1.0078-0.89453 0.97266-0.87891 0.92969-0.86328 0.89062-0.84375 0.85156-0.82031 0.81641-0.80469 0.77344-0.78125 0.73828-0.75781 0.70312-0.73438 0.66016-0.71094 0.62891-0.6875 0.58984-0.66016 0.55469-0.63281 0.51953-0.60547 0.48438-0.57812 0.45312-0.54688 0.41406-0.51953 0.38672-0.48828 0.35156-0.45703 0.31641-0.42188 0.28906-0.39062 0.25781-0.35938 0.23047-0.32422 0.19922-0.28516 0.16797-0.25391 0.14453-0.21484 0.11328-0.17969 0.089844-0.14453 0.066406-0.10156 0.039063-0.066406 0.015625-0.027344-0.007813 0.015625z" fill="#7f00ff"/>
   <path d="m526.66 71.34-0.03125 0.050781-0.050781 0.09375-0.070312 0.13672-0.09375 0.17578-0.23828 0.47656-0.14453 0.30078-0.16016 0.34766-0.17578 0.38672-0.1875 0.42969-0.20312 0.47656-0.21484 0.51562-0.23047 0.5625-0.23438 0.60547-0.24609 0.64844-0.25781 0.69531-0.26172 0.73828-0.26953 0.78125-0.27344 0.82812-0.28125 0.87109-0.28125 0.91406-0.28516 0.96094-0.28906 1.0039-0.28906 1.0469-0.28906 1.0938-0.28516 1.1328-0.28516 1.1797-0.28125 1.2227-0.27734 1.2656-0.27344 1.3086-0.26953 1.3516-0.25781 1.3906-0.25391 1.4336-0.24219 1.4766-0.23438 1.5195-0.22656 1.5586-0.21094 1.5977-0.19922 1.6367-0.1875 1.6758-0.17578 1.7188-0.16016 1.7539-0.14062 1.7891-0.12891 1.832-0.10938 1.8633-0.09375 1.9023-0.070313 1.9375-0.054687 1.9688-0.035156 2.0078-0.011719 2.0352 0.007812 2.0703 0.027344 2.1055 0.054688 2.1328 0.078125 2.1641 0.097656 2.1914 0.125 2.2227 0.15234 2.25 0.17578 2.2734 0.20312 2.3047 0.23047 2.3242 0.25391 2.3516 0.28516 2.375 0.3125 2.3984 0.34375 2.418 0.37109 2.4414 0.39844 2.457 0.42969 2.4805 0.46094 2.4961 0.48828 2.5117 0.51953 2.5273 0.55078 2.543 0.58203 2.5586 0.61719 2.5664 0.64453 2.582 0.67578 2.5938 0.71094 2.6016 0.73828 2.6094 0.77344 2.6172 0.80469 2.625 0.83594 2.6328 0.86719 2.6328 0.90234 2.6406 0.92969 2.6406 0.96484 2.6406 0.99609 2.6445 1.0273 2.6406 1.0586 2.6406 1.0898 2.6406 1.1211 2.6328 1.1523 2.6289 1.1797 2.625 1.2148 2.6172 1.2422 2.6133 1.2695 2.6016 1.3008 2.5898 1.3281 2.582 1.3594 2.5703 1.3867 2.5586 1.4141 2.543 1.4375 2.5312 1.4688 2.5156z" fill="#f0f"/>
   <path d="m553.8 251.2 1.4922 2.4961 1.5156 2.4844 1.543 2.4609 1.5664 2.4453 1.5938 2.4258 1.6133 2.4062 1.6328 2.3828 1.6602 2.3633 1.6758 2.3398 1.6992 2.3164 1.7188 2.293 1.7383 2.2656 1.7539 2.2422 1.7734 2.2148 1.7852 2.1875 1.8047 2.1641 1.8203 2.1328 1.832 2.1016 1.8477 2.0742 1.8555 2.0469 1.8711 2.0117 1.8789 1.9844 1.8867 1.9531 1.8984 1.918 1.9062 1.8867 1.9102 1.8555 1.918 1.8242 1.9219 1.7891 1.9258 1.7539 1.9297 1.7188 1.9297 1.6875 1.9336 1.6523 1.9297 1.6172 1.9297 1.5781 1.9297 1.5469 1.9219 1.5117 1.9219 1.4766 1.918 1.4414 1.9062 1.4023 1.9023 1.3672 1.8945 1.332 1.8867 1.2969 1.8711 1.2617 1.8633 1.2266 1.8516 1.1875 1.8398 1.1562 1.8203 1.1172 1.8086 1.082 1.793 1.0508 1.7734 1.0117 1.7578 0.98047 1.7383 0.94141 1.7148 0.91016 1.6992 0.87891 1.6719 0.84375 1.6523 0.80859 1.6289 0.77734 1.6016 0.74609 1.5781 0.71094 1.5508 0.67969 1.5234 0.65234 1.4961 0.62109 1.4648 0.58984 1.4375 0.55859 1.4023 0.53125 1.375 0.50391 1.3438 0.47656 1.3086 0.44922 1.2734 0.42188 1.2422 0.39453 1.2031 0.37109 1.1719 0.34766 1.1328 0.32422 1.0938 0.30078 1.0586 0.27734 1.0195 0.25391 0.98047 0.23828 0.94141 0.21484 0.90234 0.19531 0.85938 0.17969 0.82031 0.16016 0.77734 0.14453 0.73438 0.12891 0.69141 0.11328 0.65234 0.097656 0.60547 0.089844 0.56641 0.074219 0.51953 0.0625 0.47266 0.050781 0.43359 0.042969 0.38672 0.035156 0.33984 0.027344 0.29688 0.019531 0.25 0.015625 0.20703 0.007812 0.16016 0.007813 0.11328 0.003906h0.089843z" fill="#ff007f"/>
  </g>
 </g>
</svg>
