<?xml version="1.0" encoding="UTF-8"?>
<svg viewBox="0 0 200 200" xmlns="http://www.w3.org/2000/svg">
<style>
  #g1, #g2 {
    fill:none; stroke:#FF156D; stroke-linecap:round; stroke-width:18;
  }
  #g1 {
    animation: rotate 2.5s infinite linear;
    transform-origin: 70px 70px;
  }
  #g2 {
    animation: counter-rotate 2.5s infinite linear;
    transform-origin: 130px 130px;
  }
  @keyframes rotate { from { transform: rotate(0deg); } to { transform: rotate(359deg); } }
  @keyframes counter-rotate { from { transform: rotate(359deg); } to { transform: rotate(0deg); } }
</style>
	<path id="g1" d="M70 95.5V112m0-84v16.5m0 0a25.5 25.5 0 1 0 0 51 25.5 25.5 0 0 0 0-51Zm36.4 4.5L92 57.3M33.6 91 48 82.7m0-25.5L33.6 49m58.5 33.8 14.3 8.2">
	</path>
	<path id="g2" d="M130 155.5V172m0-84v16.5m0 0a25.5 25.5 0 1 0 0 51 25.5 25.5 0 0 0 0-51Zm36.4 4.5-14.3 8.3M93.6 151l14.3-8.3m0-25.4L93.6 109m58.5 33.8 14.3 8.2">
	</path>
</svg>

