<?xml version="1.0" encoding="UTF-8"?>
<svg width="195" height="195" version="1.1" viewBox="0 0 195 195" xmlns="http://www.w3.org/2000/svg">
 <path d="m145.64 81.673 13.987-7.9883-10.135-17.275-13.987 7.9883a50.677 49.927 0 0 0-27.771-15.877v-15.977h-20.271v15.977a50.677 49.927 0 0 0-27.974 15.877l-13.987-7.9883-10.135 17.275 13.987 7.9883a50.677 49.927 0 0 0 0 31.654l-13.987 7.9883 10.135 17.275 13.987-7.9883a50.677 49.927 0 0 0 27.872 15.877v15.977h20.271v-15.977a50.677 49.927 0 0 0 27.771-15.877l13.987 7.9883 10.135-17.275-13.987-7.9883a50.677 49.927 0 0 0 0-31.654zm-48.143 50.726a35.474 34.949 0 1 1 0-69.898 35.474 34.949 0 0 1 0 69.898z" fill="#ff156d" stroke="#ff156d" stroke-width="15.09" transform-origin="center">
  <animateTransform attributeName="transform" calcMode="spline" dur="2" keySplines="0 0 1 1" keyTimes="0;1" repeatCount="indefinite" type="rotate" values="0;120"/>
 </path>
</svg>
