<?xml version="1.0" encoding="UTF-8"?><svg width="24" height="24" viewBox="0 0 24 24" xmlns="http://www.w3.org/2000/svg"> <style>.spinner_ngNb{animation:spinner_ZRWK 1.2s cubic-bezier(0.52,.6,.25,.99) infinite}.spinner_6TBP{animation-delay:.6s}@keyframes spinner_ZRWK{0%{transform:translate(12px,12px) scale(0);opacity:1}100%{transform:translate(0,0) scale(1);opacity:0}}</style> <path class="spinner_ngNb" transform="translate(12 12) scale(0)" d="m12 1a11 11 0 1 0 11 11 11 11 0 0 0-11-11zm0 20a9 9 0 1 1 9-9 9 9 0 0 1-9 9z"/> <path class="spinner_ngNb spinner_6TBP" transform="translate(12 12) scale(0)" d="m12 1a11 11 0 1 0 11 11 11 11 0 0 0-11-11zm0 20a9 9 0 1 1 9-9 9 9 0 0 1-9 9z"/></svg>