<?xml version="1.0" encoding="UTF-8"?>
<svg viewBox="0 0 200 200" xmlns="http://www.w3.org/2000/svg">
<style>
  #g1, #g2 {
    fill:none; stroke:#FF156D; stroke-linecap:square; stroke-width:18;
  }
  #g1 {
    animation: rotate 2.5s infinite linear;
    transform-origin: 70px 70px;
  }
  #g2 {
    animation: counter-rotate 2.5s infinite linear;
    transform-origin: 130px 130px;
  }
  @keyframes rotate { from { transform: rotate(0deg); } to { transform: rotate(359deg); } }
  @keyframes counter-rotate { from { transform: rotate(359deg); } to { transform: rotate(0deg); } }
</style>
	<path id="g1" d="m70   95V112m0-84v16m0 0a25 25 0 1 0 0 51 25 25 0 0 0 0-51Zm36 4L92 57M33 91 48 82m0-25L33 49m60 33 14 8">
	</path>
	<path id="g2" d="m130 155V172m0-84v16m0 0a25 25 0 1 0 0 51 25 25 0 0 0 0-51Zm36 4-14 8M93 151l14-8m0-25L93 109m60 33 14 8">
	</path>
</svg>

