<?xml version="1.0" encoding="UTF-8"?>
<svg width="1700" height="1700" enable-background="new 0 0 1698.096 1645.666" version="1.1" viewBox="0 0 1700 1700" xml:space="preserve" xmlns="http://www.w3.org/2000/svg">
<style>.spin{transform-origin:center;animation:rot 1.5s linear infinite}@keyframes rot{100%{transform:rotate(-360deg)}}</style>
<g transform="matrix(.96312 0 0 .99853 32.264 28.384)">
<g class="spin">
<g fill="none" stroke="#000" stroke-miterlimit="1" stroke-width="2.3606">
	<path d="m837.64 874.22c-5.562-1.807-5.562-4.737 0-6.545l0.025-8e-3v-0.026c0-5.849 2.787-6.754 6.224-2.022l0.015 0.021 0.025-8e-3c5.562-1.807 7.285 0.563 3.847 5.295l-0.015 0.021 0.015 0.021c3.438 4.732 1.715 7.102-3.847 5.295l-0.025-8e-3 -0.015 0.021c-3.438 4.732-6.224 3.826-6.224-2.022v-0.026z"/>
	<path d="m834.13 876.62c-9.892-3.351-9.826-8.583 0.146-11.686l0.044-0.014 1e-3 -0.046c0.13-10.443 5.126-11.998 11.159-3.473l0.027 0.038 0.044-0.014c9.972-3.103 12.995 1.168 6.751 9.54l-0.028 0.037 0.027 0.038c6.033 8.525 2.905 12.72-6.987 9.369l-0.044-0.015-0.028 0.037c-6.244 8.372-11.199 6.693-11.069-3.75l1e-3 -0.046z"/>
	<path d="m830.56 878.93c-14.183-5.003-13.995-12.535 0.42-16.824l0.064-0.019 2e-3 -0.066c0.375-15.034 7.597-17.183 16.13-4.8l0.038 0.055 0.064-0.019c14.414-4.289 18.69 1.915 9.55 13.858l-0.04 0.053 0.038 0.055c8.534 12.383 3.954 18.367-10.229 13.365l-0.063-0.022-0.04 0.053c-9.14 11.943-16.246 9.436-15.871-5.598l2e-3 -0.066z"/>
	<path d="m826.94 881.15c-18.433-6.761-18.066-16.592 0.822-21.956l0.083-0.024 3e-3 -0.087c0.734-19.621 10.197-22.309 21.136-6.004l0.048 0.072 0.083-0.024c18.887-5.365 24.368 2.804 12.241 18.246l-0.054 0.068 0.048 0.072c10.939 16.305 4.863 24.042-13.57 17.28l-0.081-0.03-0.054 0.068c-12.127 15.442-21.362 12.054-20.628-7.566l3e-3 -0.087z"/>
	<path d="m823.25 883.29c-22.642-8.627-22.037-20.751 1.352-27.081l0.103-0.028 5e-3 -0.107c1.208-24.2 12.926-27.371 26.173-7.083l0.059 0.09 0.103-0.028c23.388-6.329 30.025 3.835 14.824 22.703l-0.067 0.083 0.059 0.09c13.247 20.288 5.631 29.741-17.011 21.114l-0.1-0.038-0.067 0.083c-15.201 18.868-26.545 14.546-25.337-9.654l5e-3 -0.107z"/>
	<path d="m819.51 885.33c-26.806-10.598-25.906-25.011 2.009-32.194l0.123-0.032 8e-3 -0.127c1.796-28.769 15.782-32.367 31.239-8.037l0.068 0.108 0.123-0.032c27.916-7.182 35.66 5.007 17.297 27.226l-0.081 0.098 0.068 0.108c15.457 24.33 6.257 35.462-20.549 24.864l-0.118-0.047-0.081 0.098c-18.363 22.219-31.793 16.909-29.997-11.859l8e-3 -0.127z"/>
	<path d="m815.72 887.28c-30.924-12.674-29.673-29.371 2.795-37.294l0.143-0.035 0.011-0.147c2.497-33.327 18.764-37.296 36.333-8.867l0.078 0.126 0.143-0.035c32.467-7.923 41.269 6.321 19.66 31.815l-0.096 0.113 0.078 0.126c17.568 28.43 6.742 41.203-24.182 28.529l-0.137-0.056-0.095 0.113c-21.609 25.494-37.103 19.144-34.605-14.183l0.011-0.147z"/>
	<path d="m811.88 889.13c-34.993-14.854-33.333-33.828 3.708-42.379l0.164-0.038 0.015-0.167c3.313-37.871 21.871-42.155 41.451-9.57l0.087 0.144 0.164-0.038c37.041-8.552 46.851 7.774 21.91 36.465l-0.11 0.127 0.087 0.144c19.579 32.586 7.084 46.96-27.91 32.106l-0.155-0.066-0.11 0.127c-24.94 28.691-42.473 21.249-39.159-16.622l0.015-0.167z"/>
	<path d="m807.98 890.9c-39.013-17.137-36.887-38.38 4.748-47.447l0.184-0.04 0.019-0.187c4.243-42.399 25.102-46.942 46.591-10.146l0.095 0.163 0.184-0.04c41.635-9.067 52.401 9.368 24.047 41.176l-0.125 0.141 0.095 0.163c21.489 36.795 7.283 52.732-31.729 35.594l-0.172-0.076-0.125 0.141c-28.354 31.808-47.9 23.222-43.657-19.177l0.019-0.187z"/>
	<path d="m804.04 892.57c-42.98-19.522-40.332-43.025 5.915-52.494l0.204-0.042 0.023-0.207c5.285-46.909 28.456-51.653 51.752-10.596l0.103 0.181 0.204-0.042c46.247-9.469 57.919 11.101 26.07 45.945l-0.141 0.154 0.103 0.181c23.297 41.057 7.34 58.514-35.64 38.992l-0.19-0.086-0.141 0.154c-31.849 34.844-53.382 25.063-48.097-21.847l0.023-0.207z"/>
	<path d="m800.06 894.14c-46.893-22.009-43.666-47.761 7.208-57.518l0.225-0.043 0.028-0.227c6.441-51.399 31.93-56.288 56.931-10.919l0.11 0.201 0.225-0.043c50.874-9.757 63.4 12.973 27.977 50.77l-0.157 0.167 0.111 0.201c25.001 45.369 7.253 64.306-39.64 42.297l-0.207-0.097-0.157 0.167c-35.423 37.797-58.917 26.77-52.476-24.629l0.029-0.227z"/>
	<path d="m796.02 895.62c-50.75-24.596-46.888-52.586 8.627-62.518l0.245-0.044 0.034-0.247c7.71-55.867 35.524-60.843 62.124-11.114l0.118 0.22 0.245-0.044c55.515-9.932 68.843 14.983 29.767 55.649l-0.173 0.18 0.118 0.22c26.601 49.729 7.023 70.103-43.727 45.507l-0.224-0.109-0.173 0.18c-39.075 40.666-64.502 28.343-56.792-27.524l0.034-0.247z"/>
	<path d="m791.95 897c-54.55-27.282-49.995-57.499 10.173-67.491l0.266-0.044 0.04-0.267c9.09-60.311 39.235-65.317 67.331-11.181l0.124 0.239 0.266-0.044c60.168-9.992 74.244 17.131 31.44 60.58l-0.189 0.192 0.124 0.239c28.095 54.135 6.65 75.904-47.9 48.622l-0.241-0.121-0.189 0.192c-42.804 43.449-70.134 29.78-61.044-30.53l0.04-0.267z"/>
	<path d="m787.83 898.28c-58.289-30.067-52.987-62.497 11.843-72.433l0.287-0.044 0.047-0.286c10.583-64.728 43.064-69.706 72.548-11.12l0.13 0.259 0.287-0.044c64.83-9.937 79.602 19.416 32.994 65.561l-0.206 0.204 0.13 0.259c29.484 58.586 6.133 81.706-52.156 51.639l-0.258-0.133-0.206 0.204c-46.608 46.145-75.812 31.081-65.229-33.646l0.047-0.286z"/>
	<path d="m783.68 899.46c-61.967-32.949-55.861-67.577 13.638-77.344l0.307-0.043 0.054-0.305c12.187-69.116 47.007-74.01 77.773-10.93l0.136 0.279 0.307-0.043c69.499-9.768 84.914 21.836 34.429 70.589l-0.223 0.216 0.136 0.279c30.766 63.08 5.472 87.505-56.495 54.557l-0.274-0.146-0.223 0.215c-50.485 48.753-81.532 32.245-69.345-36.871l0.054-0.305z"/>
	<path d="m779.48 900.54c-65.582-35.926-58.617-72.738 15.557-82.221l0.328-0.042 0.061-0.325c13.902-73.474 51.064-78.225 83.004-10.612l0.141 0.299 0.328-0.042c74.174-9.483 90.176 24.392 35.742 75.663l-0.241 0.227 0.141 0.299c31.94 67.613 4.668 93.3-60.914 57.374l-0.29-0.159-0.241 0.227c-54.434 51.27-87.292 33.271-73.389-40.203l0.061-0.325z"/>
	<path d="m775.25 901.53c-69.131-38.999-61.252-77.978 17.6-87.061l0.349-0.04 0.07-0.344c15.727-77.799 55.233-82.35 88.239-10.165l0.146 0.319 0.349-0.04c78.851-9.084 95.388 27.082 36.935 80.779l-0.258 0.237 0.146 0.319c33.005 72.185 3.72 99.088-65.412 60.089l-0.306-0.172-0.258 0.237c-58.453 53.696-93.089 34.157-77.361-43.642l0.07-0.344z"/>
	<path d="m770.99 902.41c-72.614-42.165-63.764-83.293 19.766-91.862l0.369-0.038 0.078-0.363c17.663-82.09 59.513-86.383 93.474-9.589l0.15 0.339 0.369-0.038c83.53-8.569 100.54 29.906 38.005 85.936l-0.276 0.248 0.15 0.339c33.962 76.794 2.628 104.87-69.986 62.7l-0.321-0.186-0.276 0.248c-62.54 56.03-98.921 34.904-81.258-47.185l0.078-0.363z"/>
	<path d="m766.7 903.19c-76.027-45.424-66.154-88.683 22.053-96.622l0.39-0.035 0.087-0.382c19.707-86.343 63.9-90.32 98.708-8.884l0.154 0.36 0.39-0.035c88.207-7.939 105.65 32.862 38.951 91.132l-0.295 0.258 0.154 0.36c34.808 81.437 1.393 110.63-74.635 65.206l-0.336-0.201-0.295 0.258c-66.695 58.269-104.79 35.511-85.078-50.832l0.087-0.382z"/>
	<path d="m762.38 903.87c-79.37-48.774-68.418-94.145 24.463-101.34l0.411-0.032 0.097-0.4c21.86-90.558 68.395-94.162 103.94-8.05l0.157 0.381 0.411-0.032c92.881-7.193 110.69 35.95 39.774 96.363l-0.313 0.267 0.157 0.381c35.543 86.112 0.014 116.38-79.356 67.606l-0.351-0.216-0.313 0.267c-70.914 60.413-110.68 35.977-88.819-54.581l0.097-0.4z"/>
	<path d="m758.02 904.44c-82.641-52.215-70.556-99.676 26.993-106.01l0.431-0.028 0.107-0.419c24.122-94.731 72.995-97.904 109.16-7.086l0.16 0.401 0.431-0.028c97.549-6.333 115.67 39.168 40.472 101.63l-0.332 0.276 0.16 0.401c36.167 90.818-1.508 122.11-84.148 69.897l-0.365-0.231-0.332 0.276c-75.196 62.461-116.6 36.301-92.479-58.431l0.107-0.419z"/>
	<path d="m753.65 904.91c-85.837-55.743-72.565-105.28 29.644-110.63l0.452-0.024 0.117-0.437c26.49-98.862 77.698-101.55 114.38-5.994l0.162 0.422 0.452-0.024c102.21-5.357 120.59 42.516 41.045 106.93l-0.352 0.285 0.162 0.422c36.679 95.551-3.172 127.82-89.01 72.079l-0.379-0.246-0.352 0.285c-79.54 64.411-122.55 36.482-96.056-62.38l0.117-0.437z"/>
	<path d="m749.24 905.28c-88.958-59.36-74.446-110.94 32.413-115.2l0.472-0.019 0.128-0.455c28.965-102.95 82.503-105.08 119.58-4.773l0.164 0.443 0.472-0.019c106.86-4.265 125.44 45.992 41.492 112.25l-0.371 0.293 0.164 0.443c37.078 100.31-4.979 133.51-93.938 74.149l-0.393-0.262-0.371 0.293c-83.944 66.261-128.51 36.521-99.549-66.427l0.128-0.455z"/>
	<path d="m744.82 905.54c-92.002-63.062-76.197-116.66 35.301-119.72l0.493-0.013 0.139-0.473c31.546-106.99 87.408-108.52 124.77-3.423l0.165 0.465 0.493-0.013c111.5-3.059 130.22 49.596 41.812 117.61l-0.391 0.301 0.165 0.465c37.364 105.1-6.929 139.17-98.931 76.108l-0.407-0.279-0.391 0.301c-88.406 68.011-134.5 36.416-102.95-70.57l0.139-0.473z"/>
	<path d="m740.38 905.7c-94.966-66.849-77.815-122.45 38.307-124.19l0.513-8e-3 0.151-0.491c34.231-110.98 92.41-111.85 129.95-1.944l0.166 0.486 0.513-8e-3c116.12-1.737 134.93 53.325 42.005 122.99l-0.411 0.308 0.166 0.486c37.536 109.9-9.02 144.8-103.99 77.953l-0.42-0.295-0.411 0.308c-92.924 69.66-140.5 36.168-106.27-74.808l0.151-0.49z"/>
	<path d="m735.91 905.75c-97.85-70.72-79.301-128.29 41.429-128.6l0.534-1e-3 0.164-0.508c37.021-114.91 97.509-115.06 135.1-0.337l0.166 0.507 0.534-1e-3c120.73-0.301 139.56 57.18 42.069 128.39l-0.431 0.315 0.166 0.507c37.594 114.73-11.253 150.4-109.1 79.684l-0.432-0.313-0.431 0.315c-97.496 71.207-146.52 35.775-109.5-79.139l0.164-0.508z"/>
	<path d="m731.44 905.69c-100.65-74.672-80.653-134.19 44.666-132.94l0.554 6e-3 0.176-0.525c39.915-118.8 102.7-118.17 140.24 1.399l0.166 0.529 0.554 6e-3c125.32 1.25 144.13 61.157 42.006 133.81l-0.451 0.321 0.166 0.529c37.537 119.57-13.627 155.97-114.28 81.299l-0.445-0.33-0.451 0.321c-102.12 72.65-152.55 35.238-112.63-83.562l0.176-0.525z"/>
	<path d="m726.94 905.53c-103.37-78.705-81.87-140.14 48.019-137.23l0.574 0.013 0.19-0.542c42.91-122.63 107.99-121.17 145.35 3.262l0.165 0.55 0.574 0.013c129.89 2.915 148.61 65.258 41.813 139.24l-0.472 0.327 0.165 0.55c37.365 124.43-16.141 161.5-119.51 82.796l-0.457-0.348-0.472 0.327c-106.8 73.988-158.58 34.556-115.67-88.075l0.19-0.542z"/>
	<path d="m722.44 905.26c-106-82.817-82.95-146.15 51.484-141.45l0.594 0.021 0.203-0.559c46.007-126.4 113.36-124.05 150.44 5.253l0.164 0.572 0.594 0.021c134.43 4.695 153.01 69.479 41.492 144.7l-0.493 0.332 0.164 0.572c37.078 129.3-18.795 166.99-124.8 84.175l-0.469-0.366-0.493 0.332c-111.52 75.221-164.63 33.728-118.62-92.676l0.203-0.559z"/>
	<path d="m717.92 904.89c-108.54-87.006-83.893-152.2 55.063-145.61l0.614 0.029 0.217-0.575c49.205-130.12 118.82-126.82 155.5 7.372l0.162 0.593 0.614 0.029c138.96 6.588 157.33 73.819 41.04 150.17l-0.514 0.337 0.162 0.593c36.674 134.19-21.589 172.44-130.13 85.435l-0.48-0.385-0.514 0.337c-116.29 76.346-170.67 32.755-121.47-97.364l0.217-0.575z"/>
	<path d="m713.39 904.4c-111-91.271-84.697-158.29 58.752-149.7l0.634 0.038 0.232-0.591c52.502-133.77 124.37-129.47 160.53 9.617l0.16 0.615 0.634 0.038c143.45 8.594 161.56 78.278 40.459 155.64l-0.535 0.342 0.16 0.615c36.155 139.08-24.521 177.84-135.52 86.575l-0.491-0.403-0.535 0.342c-121.1 77.365-176.72 31.637-124.22-102.14l0.232-0.591z"/>
	<path d="m708.86 903.81c-113.37-95.61-85.362-164.43 62.552-153.72l0.654 0.047 0.247-0.607c55.898-137.36 130-132 165.52 11.989l0.157 0.636 0.654 0.047c147.92 10.714 165.71 82.853 39.747 161.13l-0.557 0.346 0.157 0.636c35.519 143.99-27.591 183.2-140.96 87.593l-0.501-0.423-0.557 0.346c-125.96 78.274-182.76 30.372-126.86-106.99l0.247-0.607z"/>
	<path d="m704.32 903.11c-115.64-100.02-85.887-170.61 66.461-157.66l0.673 0.057 0.263-0.623c59.391-140.89 135.72-134.4 170.48 14.487l0.154 0.658 0.673 0.057c152.35 12.946 169.77 87.544 38.905 166.62l-0.578 0.35 0.154 0.658c34.766 148.89-30.798 188.51-146.44 88.488l-0.511-0.442-0.578 0.349c-130.86 79.074-188.8 28.962-129.41-111.93l0.263-0.623z"/>
	<path d="m699.79 902.31c-117.82-104.5-86.271-176.83 70.478-161.54l0.693 0.068 0.278-0.638c62.98-144.35 141.51-136.69 175.41 17.111l0.15 0.68 0.693 0.068c156.75 15.29 173.73 92.348 37.931 172.11l-0.6 0.353 0.15 0.68c33.896 153.8-34.142 193.76-151.97 89.26l-0.521-0.462-0.6 0.353c-135.8 79.764-194.83 27.406-131.85-116.95l0.278-0.638z"/>
	<path d="m695.25 901.39c-119.91-109.06-86.512-183.08 74.601-165.33l0.712 0.078 0.295-0.653c66.665-147.74 147.38-138.85 180.29 19.859l0.145 0.701 0.712 0.078c161.11 17.747 177.6 97.264 36.827 177.61l-0.622 0.355 0.145 0.702c32.909 158.71-37.621 198.96-157.53 89.908l-0.53-0.482-0.622 0.355c-140.78 80.343-200.85 25.704-134.19-122.04l0.295-0.653z"/>
	<path d="m690.71 900.37c-121.9-113.68-86.611-189.36 78.83-169.05l0.731 0.09 0.311-0.668c70.443-151.07 153.33-140.89 185.14 22.732l0.141 0.723 0.731 0.09c165.44 20.314 181.38 102.29 35.591 183.1l-0.644 0.357 0.141 0.723c31.805 163.62-41.236 204.11-163.14 90.43l-0.539-0.502-0.644 0.357c-145.78 80.81-206.86 23.855-136.42-127.21l0.311-0.668z"/>
	<path d="m686.17 899.24c-123.8-118.36-86.566-195.68 83.162-172.69l0.75 0.102 0.328-0.682c74.315-154.32 159.35-142.8 189.93 25.728l0.135 0.745 0.75 0.102c169.73 22.991 185.05 107.42 34.224 188.59l-0.667 0.359 0.135 0.745c30.583 168.53-44.984 209.19-168.78 90.826l-0.547-0.523-0.667 0.359c-150.83 81.163-212.85 21.861-138.54-132.46l0.328-0.682z"/>
	<path d="m681.64 897.99c-125.6-123.12-86.377-202.02 87.597-176.24l0.769 0.114 0.346-0.696c78.278-157.49 165.44-144.58 194.69 28.848l0.129 0.767 0.769 0.114c173.97 25.779 188.63 112.67 32.725 194.07l-0.689 0.36 0.129 0.767c29.244 173.42-48.865 214.21-174.46 91.095l-0.555-0.544-0.689 0.36c-155.9 81.404-218.83 19.721-140.55-137.77l0.346-0.696z"/>
	<path d="m677.12 896.64c-127.29-127.93-86.043-208.39 92.134-179.71l0.788 0.127 0.364-0.71c82.332-160.59 171.6-146.23 199.39 32.09l0.123 0.788 0.788 0.127c178.18 28.676 192.1 118.02 31.095 199.55l-0.712 0.36 0.123 0.788c27.787 178.32-52.878 219.16-180.17 91.236l-0.563-0.565-0.712 0.36c-161 81.53-224.78 17.436-142.45-143.16l0.364-0.71z"/>
	<path d="m672.61 895.19c-128.89-132.8-85.563-214.78 96.77-183.1l0.806 0.14 0.382-0.723c86.475-163.62 177.83-147.74 204.04 35.453l0.116 0.81 0.806 0.14c182.33 31.682 195.46 123.47 29.333 205.01l-0.734 0.36 0.116 0.81c26.213 183.2-57.022 224.05-185.91 91.249l-0.57-0.587-0.734 0.36c-166.13 81.541-230.71 15.005-144.23-148.61l0.382-0.723z"/>
	<path d="m668.11 893.62c-130.38-137.74-84.937-221.19 101.5-186.39l0.824 0.154 0.401-0.736c90.706-166.56 184.12-149.13 208.64 38.938l0.108 0.831 0.824 0.154c186.44 34.795 198.73 129.02 27.44 210.46l-0.757 0.36 0.108 0.831c24.521 188.07-61.296 228.87-191.68 91.132l-0.576-0.609-0.757 0.36c-171.29 81.437-236.61 12.429-145.9-154.13l0.401-0.736z"/>
	<path d="m663.62 891.94c-131.77-142.73-84.164-227.61 106.34-189.6l0.842 0.168 0.42-0.749c95.023-169.43 190.47-150.38 213.18 42.542l0.1 0.853 0.842 0.168c190.5 38.016 201.88 134.67 25.416 215.89l-0.78 0.359 0.1 0.853c22.712 192.92-65.698 233.61-197.47 90.885l-0.582-0.631-0.78 0.359c-176.46 81.217-242.48 9.708-147.46-159.72l0.42-0.749z"/>
	<path d="m659.15 890.16c-133.06-147.78-83.243-234.05 111.26-192.71l0.86 0.183 0.439-0.761c99.425-172.21 196.88-151.5 217.66 46.265l0.092 0.874 0.86 0.183c194.5 41.343 204.92 140.42 23.26 221.3l-0.803 0.357 0.092 0.874c20.785 197.76-70.228 238.28-203.28 90.508l-0.588-0.653-0.803 0.357c-181.66 80.88-248.32 6.842-148.9-165.37l0.439-0.761z"/>
	<path d="m654.69 888.27c-134.24-152.88-82.175-240.51 116.28-195.73l0.877 0.198 0.459-0.773c103.91-174.91 203.34-152.47 222.08 50.107l0.083 0.895 0.877 0.198c198.46 44.776 207.85 146.27 20.973 226.7l-0.826 0.355 0.083 0.895c18.742 202.58-74.885 242.88-209.12 90l-0.593-0.676-0.826 0.355c-186.87 80.425-254.13 3.833-150.22-171.07l0.459-0.773z"/>
	<path d="m650.26 886.27c-135.31-158.03-80.958-246.97 121.39-198.65l0.894 0.214 0.479-0.785c108.48-177.52 209.86-153.31 226.44 54.066l0.073 0.917 0.894 0.214c202.35 48.314 210.66 152.21 18.555 232.07l-0.849 0.353 0.073 0.917c16.581 207.38-79.667 247.39-214.98 89.36l-0.598-0.698-0.849 0.353c-192.1 79.853-259.9 0.679-151.42-176.84l0.479-0.785z"/>
	<path d="m645.84 884.16c-136.27-163.23-79.594-253.43 126.6-201.48l0.911 0.23 0.5-0.796c113.13-180.04 216.43-154.01 230.74 58.141l0.063 0.938 0.911 0.23c206.19 51.956 213.36 158.25 16.007 237.41l-0.872 0.35 0.063 0.938c14.304 212.15-84.572 251.82-220.84 88.587l-0.602-0.722-0.872 0.35c-197.35 79.163-265.63-2.617-152.5-182.66l0.5-0.796z"/>
	<path d="m641.45 881.94c-137.13-168.48-78.08-259.9 131.89-204.2l0.928 0.246 0.521-0.807c117.86-182.48 223.06-154.57 234.97 62.331l0.053 0.959 0.928 0.246c209.97 55.7 215.94 164.37 13.328 242.73l-0.896 0.346 0.053 0.959c11.91 216.9-89.6 256.16-226.73 87.682l-0.606-0.745-0.896 0.346c-202.61 78.354-271.31-6.057-153.45-188.54l0.521-0.807z"/>
	<path d="m637.08 879.62c-137.87-173.78-76.417-266.38 137.27-206.83l0.944 0.263 0.542-0.817c122.66-184.82 229.72-154.99 239.12 66.636l0.042 0.98 0.944 0.263c213.68 59.547 218.39 170.59 10.519 248.01l-0.919 0.342 0.042 0.98c9.4 221.63-94.749 260.42-232.62 86.644l-0.609-0.768-0.919 0.342c-207.88 77.426-276.95-9.638-154.29-194.46l0.542-0.817z"/>
	<path d="m632.75 877.19c-138.51-179.12-74.604-272.84 142.73-209.35l0.961 0.281 0.564-0.827c127.55-187.08 236.44-155.27 243.21 71.054l0.03 1 0.961 0.281c217.34 63.495 220.73 176.88 7.58 253.26l-0.942 0.338 0.03 1c6.773 226.32-100.02 264.59-238.53 85.472l-0.612-0.792-0.942 0.338c-213.15 76.379-282.54-13.361-155-200.44l0.564-0.827z"/>
	<path d="m628.44 874.65c-139.03-184.5-72.642-279.31 148.28-211.77l0.977 0.299 0.586-0.836c132.51-189.24 243.19-155.4 247.22 75.584l0.018 1.021 0.976 0.299c220.92 67.543 222.94 183.27 4.512 258.48l-0.966 0.332 0.018 1.021c4.032 230.98-105.41 268.66-244.44 84.166l-0.615-0.815-0.965 0.332c-218.43 75.212-288.09-17.225-155.58-206.46l0.586-0.836z"/>
	<path d="m624.16 872.01c-139.44-189.92-70.53-285.77 153.91-214.08l0.992 0.317 0.608-0.846c137.54-191.3 249.99-155.38 251.16 80.225v1.041l0.992 0.317c224.44 71.69 225.03 189.73 1.315 263.66l-0.989 0.327 0.01 1.041c1.175 235.61-110.91 272.65-250.35 82.725l-0.616-0.839-0.989 0.327c-223.72 73.925-293.58-21.229-156.04-212.53l0.608-0.846z"/>
	<path d="m619.92 869.26c-139.73-195.38-68.268-292.21 159.62-216.28l1.007 0.336 0.63-0.854c142.64-193.27 256.82-155.23 255.02 84.975l-0.01 1.062 1.007 0.336c227.89 75.935 226.99 196.28-2.011 268.8l-1.012 0.32-0.01 1.062c-1.797 240.2-116.53 276.53-256.26 81.151l-0.618-0.864-1.012 0.321c-229 72.517-299.01-25.372-156.37-218.64l0.63-0.854z"/>
	<path d="m615.71 866.4c-139.91-200.88-65.856-298.65 165.41-218.37l1.022 0.355 0.653-0.863c147.81-195.14 263.68-154.92 258.8 89.834l-0.022 1.082 1.022 0.355c231.27 80.277 228.82 202.9-5.464 273.89l-1.036 0.314-0.022 1.082c-4.883 244.75-122.26 280.32-262.18 79.441l-0.618-0.888-1.036 0.314c-234.28 70.99-304.38-29.655-156.57-224.8l0.653-0.863z"/>
	<path d="m611.54 863.44c-139.98-206.41-63.294-305.07 171.28-220.35l1.037 0.374 0.677-0.87c153.05-196.91 270.58-154.47 262.5 94.8l-0.036 1.102 1.037 0.374c234.57 84.715 230.52 209.6-9.045 278.94l-1.059 0.307-0.036 1.102c-8.082 249.27-128.11 284.01-268.08 77.596l-0.619-0.912-1.059 0.306c-239.56 69.341-309.7-34.075-156.64-230.98l0.677-0.87z"/>
	<path d="m607.4 860.37c-139.92-211.98-60.582-311.47 177.22-222.22l1.051 0.394 0.7-0.878c158.36-198.58 277.5-153.87 266.11 99.872l-0.05 1.122 1.051 0.394c237.8 89.247 232.09 216.37-12.752 283.94l-1.082 0.299-0.05 1.122c-11.396 253.74-134.06 287.59-273.99 75.616l-0.618-0.937-1.082 0.299c-244.84 67.572-314.94-38.632-156.58-237.21l0.7-0.878z"/>
	<path d="m603.31 857.2c-139.75-217.57-57.72-317.85 183.23-223.98l1.065 0.415 0.724-0.885c163.74-200.15 284.45-153.12 269.63 105.05l-0.065 1.141 1.065 0.415c240.95 93.873 233.52 223.22-16.585 288.9l-1.106 0.29-0.065 1.141c-14.821 258.16-140.13 291.07-279.88 73.5l-0.618-0.962-1.105 0.29c-250.11 65.681-320.13-43.325-156.39-243.47l0.724-0.885z"/>
	<path d="m599.27 853.93c-139.47-223.19-54.709-324.2 189.31-225.61l1.079 0.436 0.748-0.891c169.17-201.61 291.43-152.22 273.07 110.33l-0.081 1.16 1.079 0.436c244.02 98.591 234.82 230.13-20.544 293.8l-1.129 0.281-0.081 1.16c-18.359 262.54-146.3 294.44-285.77 71.25l-0.616-0.986-1.129 0.281c-255.37 63.67-325.24-48.153-156.07-249.76l0.748-0.891z"/>
	<path d="m595.26 850.55c-139.06-228.84-51.547-330.53 195.46-227.13l1.092 0.457 0.772-0.897c174.67-202.97 298.42-151.16 276.42 115.71l-0.097 1.18 1.092 0.457c247.01 103.4 235.98 237.11-24.628 298.64l-1.152 0.272-0.097 1.18c-22.008 266.87-152.58 297.7-291.64 68.864l-0.615-1.011-1.152 0.272c-260.61 61.537-330.28-53.115-155.61-256.08l0.772-0.897z"/>
	<path d="m591.31 847.07c-138.53-234.51-48.237-336.83 201.68-228.53l1.105 0.479 0.797-0.903c180.23-204.22 305.44-149.96 279.67 121.19l-0.114 1.198 1.105 0.479c249.92 108.3 237.01 244.15-28.836 303.43l-1.175 0.262-0.114 1.199c-25.768 271.15-158.96 300.86-297.49 66.342l-0.612-1.037-1.175 0.262c-265.84 59.284-335.25-58.211-155.02-262.43l0.797-0.903z"/>
	<path d="m587.4 843.49c-137.89-240.21-44.777-343.1 207.97-229.82l1.117 0.501 0.821-0.908c185.84-205.37 312.47-148.61 282.83 126.77l-0.131 1.217 1.117 0.501c252.74 113.28 237.89 251.25-33.166 308.16l-1.198 0.252-0.131 1.217c-29.638 275.38-165.44 303.89-303.33 63.685l-0.609-1.062-1.198 0.252c-271.06 56.91-340.14-63.438-154.3-268.8l0.821-0.908z"/>
	<path d="m583.55 839.81c-137.12-245.92-41.168-349.33 214.31-230.97l1.129 0.523 0.846-0.912c191.51-206.4 319.51-147.1 285.9 132.45l-0.149 1.236 1.129 0.523c255.48 118.36 238.64 258.42-37.619 312.83l-1.221 0.24-0.149 1.236c-33.617 279.55-172.03 306.81-309.14 60.892l-0.606-1.087-1.221 0.24c-276.26 54.414-344.96-68.796-153.44-275.2l0.846-0.912z"/>
	<path d="m579.75 836.03c-136.23-251.65-37.411-355.53 220.72-232.01l1.141 0.546 0.872-0.916c197.24-207.33 326.57-145.44 288.86 138.22l-0.167 1.254 1.141 0.546c258.13 123.52 239.24 265.64-42.194 317.44l-1.244 0.229-0.167 1.254c-37.705 283.67-178.71 309.62-314.94 57.964l-0.602-1.112-1.244 0.229c-281.43 51.798-349.69-74.284-152.45-281.61l0.872-0.916z"/>
	<path d="m576 832.15c-135.22-257.4-33.505-361.68 227.18-232.92l1.152 0.569 0.897-0.92c203.02-208.14 333.63-143.63 291.73 144.09l-0.185 1.272 1.152 0.569c260.69 128.76 239.7 272.91-46.889 321.97l-1.267 0.217-0.185 1.272c-41.901 287.72-185.48 312.3-320.7 54.901l-0.598-1.138-1.267 0.217c-286.59 49.061-354.33-79.901-151.32-288.04l0.897-0.92z"/>
	<path d="m572.31 828.17c-134.09-263.16-29.452-367.79 233.71-233.71l1.163 0.593 0.923-0.923c208.84-208.84 340.69-141.66 294.49 150.05l-0.204 1.289 1.163 0.593c263.16 134.09 240.01 280.24-51.704 326.44l-1.289 0.204-0.204 1.289c-46.203 291.72-192.36 314.86-326.44 51.703l-0.593-1.163-1.289 0.204c-291.72 46.203-358.89-85.644-150.05-294.49l0.923-0.923z"/>
	<path d="m568.68 824.09c-132.83-268.93-25.252-373.86 240.28-234.37l1.174 0.617 0.949-0.926c214.72-209.43 347.76-139.54 297.15 156.1l-0.224 1.307 1.174 0.617c265.54 139.49 240.18 287.62-56.637 330.84l-1.312 0.191-0.224 1.307c-50.612 295.65-199.32 317.3-332.15 48.371l-0.587-1.189-1.312 0.191c-296.82 43.225-363.36-91.514-148.64-300.95l0.949-0.926z"/>
	<path d="m565.1 819.91c-131.45-274.71-20.904-379.88 246.91-234.9l1.184 0.641 0.975-0.928c220.64-209.91 354.83-137.27 299.7 162.24l-0.244 1.324 1.184 0.641c267.82 144.98 240.2 295.04-61.688 335.17l-1.334 0.177-0.244 1.324c-55.125 299.51-206.38 319.62-337.83 44.904l-0.581-1.214-1.334 0.177c-301.89 40.127-367.74-97.508-147.1-307.42l0.975-0.928z"/>
	<path d="m561.59 815.64c-129.95-280.5-16.411-385.84 253.59-235.3l1.193 0.665 1.002-0.929c226.61-210.27 361.89-134.84 302.15 168.47l-0.264 1.341 1.193 0.665c270 150.55 240.07 302.51-66.855 339.42l-1.357 0.163-0.264 1.341c-59.743 303.31-213.52 321.8-343.46 41.303l-0.574-1.24-1.357 0.163c-306.93 36.909-372.03-103.62-145.42-313.89l1.002-0.929z"/>
	<path d="m558.15 811.28c-128.32-286.29-11.772-391.76 260.32-235.57l1.203 0.69 1.028-0.93c232.62-210.51 368.95-132.26 304.48 174.78l-0.285 1.357 1.203 0.69c272.09 156.19 239.79 310.02-72.138 343.59l-1.379 0.148-0.285 1.357c-64.463 307.04-220.74 323.86-349.07 37.568l-0.567-1.265-1.379 0.148c-311.93 33.572-376.22-109.86-143.6-320.37l1.028-0.93z"/>
	<path d="m554.77 806.81c-126.57-292.08-6.988-397.61 267.09-235.71l1.211 0.716 1.055-0.931c238.68-210.63 375.99-129.52 306.71 181.18l-0.306 1.373 1.211 0.716c274.08 161.9 239.36 317.57-77.535 347.68l-1.401 0.133-0.306 1.373c-69.286 310.7-228.06 325.78-354.63 33.7l-0.559-1.291-1.401 0.133c-316.9 30.115-380.31-116.22-141.64-326.86l1.055-0.931z"/>
	<path d="m551.46 802.26c-124.69-297.88-2.06-403.41 273.91-235.72l1.22 0.741 1.082-0.931c244.77-210.64 383.03-126.62 308.82 187.66l-0.328 1.389 1.22 0.741c275.97 167.7 238.79 325.16-83.045 351.7l-1.422 0.117-0.328 1.389c-74.21 314.28-235.45 327.58-360.14 29.699l-0.551-1.317-1.422 0.117c-321.83 26.54-384.3-122.7-139.54-333.34l1.082-0.931z"/>
	<path d="m548.22 797.61c-122.69-303.67 3.011-409.14 280.76-235.59l1.228 0.767 1.109-0.93c250.89-210.52 390.05-123.57 310.82 194.22l-0.35 1.405 1.228 0.767c277.75 173.56 238.05 332.78-88.667 355.62l-1.444 0.101-0.35 1.405c-79.234 317.79-242.93 329.24-365.62 25.566l-0.542-1.342-1.444 0.101c-326.72 22.847-388.19-129.3-137.3-339.82l1.109-0.931z"/>
	<path d="m545.04 792.87c-120.56-309.46 8.225-414.82 287.66-235.32l1.235 0.793 1.136-0.93c257.06-210.29 397.06-120.36 312.7 200.86l-0.373 1.42 1.235 0.793c279.43 179.49 237.17 340.43-94.399 359.46l-1.466 0.084-0.373 1.42c-84.356 321.22-250.48 330.76-371.04 21.301l-0.533-1.368-1.466 0.084c-331.57 19.036-391.97-136.01-134.92-346.3l1.136-0.93z"/>
	<path d="m541.95 788.04c-118.31-315.24 13.581-420.42 294.59-234.93l1.242 0.82 1.164-0.928c263.25-209.93 404.04-117 314.46 207.57l-0.396 1.435 1.242 0.82c281.01 185.49 236.13 348.11-100.24 363.22l-1.487 0.067-0.396 1.435c-89.577 324.57-258.1 332.14-376.41 16.905l-0.523-1.393-1.487 0.067c-336.37 15.106-395.64-142.83-132.4-352.77l1.164-0.928z"/>
	<path d="m538.92 783.12c-115.93-321.01 19.078-425.95 301.56-234.39l1.249 0.847 1.191-0.926c269.47-209.46 411-113.48 316.11 214.36l-0.419 1.449 1.249 0.847c282.48 191.56 234.93 355.82-106.19 366.88l-1.508 0.049-0.419 1.449c-94.894 327.85-265.8 333.39-381.74 12.378l-0.512-1.419-1.508 0.049c-341.12 11.061-399.21-149.77-129.73-359.23l1.191-0.926z"/>
	<path d="m535.98 778.12c-113.43-326.77 24.715-431.41 308.55-233.72l1.255 0.874 1.219-0.923c275.73-208.86 417.93-109.81 317.63 221.23l-0.443 1.463 1.255 0.874c283.84 197.69 233.58 363.55-112.25 370.45l-1.529 0.031-0.443 1.463c-100.31 331.04-273.57 334.49-387 7.72l-0.501-1.444-1.529 0.031c-345.83 6.899-402.66-156.82-126.93-365.67l1.219-0.923z"/>
	<path d="m533.11 773.03c-110.8-332.52 30.491-436.8 315.58-232.91l1.26 0.901 1.246-0.92c282.01-208.13 424.84-105.98 319.03 228.16l-0.468 1.477 1.26 0.901c285.09 203.89 232.08 371.3-118.41 373.92l-1.549 0.012-0.468 1.477c-105.81 334.14-281.41 335.45-392.21 2.934l-0.49-1.47-1.549 0.012c-350.48 2.622-406-163.98-123.99-372.11l1.246-0.92z"/>
	<path d="m530.32 767.85c-108.04-338.25 36.405-442.1 322.63-231.96l1.265 0.929 1.274-0.916c288.31-207.28 431.72-102 320.3 235.16l-0.492 1.49 1.265 0.929c286.23 210.15 230.41 379.07-124.68 377.3l-1.569-0.01-0.493 1.49c-111.41 337.16-289.32 336.27-397.36-1.982l-0.478-1.495-1.569-0.01c-355.08-1.767-409.22-171.24-120.91-378.52l1.274-0.916z"/>
	<path d="m527.62 762.58c-105.16-343.97 42.456-447.33 329.71-230.87l1.27 0.957 1.302-0.912c294.64-206.31 438.56-97.855 321.46 242.23l-0.518 1.503 1.27 0.957c287.26 216.46 228.59 386.85-131.04 380.58l-1.59-0.028-0.518 1.503c-117.1 340.09-297.28 336.94-402.44-7.025l-0.465-1.52-1.59-0.028c-359.63-6.277-412.32-178.61-117.68-384.92l1.302-0.912z"/>
	<path d="m524.99 757.24c-102.15-349.66 48.643-452.48 336.81-229.64l1.274 0.985 1.33-0.907c300.98-205.21 445.36-93.56 322.48 249.37l-0.543 1.516 1.274 0.985c288.17 222.84 226.6 394.65-137.51 383.75l-1.609-0.048-0.543 1.516c-122.88 342.93-305.31 337.47-407.46-12.195l-0.452-1.546-1.609-0.048c-364.12-10.898-415.3-186.08-114.32-391.29l1.33-0.907z"/>
	<path d="m522.46 751.81c-99.021-355.34 54.964-457.53 343.94-228.26l1.277 1.013 1.358-0.902c307.35-203.98 452.12-89.111 323.37 256.56l-0.569 1.528 1.277 1.013c288.97 229.27 224.46 402.46-144.08 386.83l-1.629-0.069-0.569 1.528c-128.75 345.68-313.4 337.84-412.42-17.492l-0.438-1.571-1.629-0.069c-368.54-15.629-418.15-193.66-110.81-397.64l1.358-0.902z"/>
	<path d="m520 746.3c-95.762-360.98 61.42-462.5 351.07-226.75l1.28 1.042 1.387-0.896c313.72-202.62 458.85-84.508 324.14 263.82l-0.595 1.54 1.28 1.042c289.65 235.76 222.16 410.27-150.75 389.8l-1.648-0.09-0.595 1.54c-134.71 348.33-321.54 338.07-417.3-22.913l-0.423-1.596-1.648-0.09c-372.91-20.476-420.89-201.34-107.16-403.96l1.387-0.896z"/>
	<path d="m517.64 740.71c-92.377-366.61 68.007-467.38 358.23-225.09l1.283 1.071 1.415-0.889c320.12-201.14 465.52-79.751 324.77 271.14l-0.622 1.551 1.283 1.071c290.22 242.29 219.7 418.09-157.51 392.66l-1.667-0.112-0.622 1.551c-140.75 350.89-329.74 338.15-422.12-28.46l-0.408-1.62-1.667-0.112c-377.21-25.432-423.49-209.11-103.37-410.25l1.415-0.889z"/>
	<path d="m515.37 735.04c-88.867-372.2 74.726-472.17 365.39-223.29l1.285 1.1 1.443-0.882c326.52-199.53 472.15-74.84 325.27 278.51l-0.649 1.562 1.285 1.1c290.67 248.88 217.08 425.92-164.36 395.42l-1.686-0.135-0.649 1.562c-146.88 353.35-337.99 338.07-426.86-34.13l-0.393-1.645-1.686-0.135c-381.44-30.499-425.97-216.98-99.446-416.51l1.443-0.882z"/>
	<path d="m513.19 729.3c-85.231-377.76 81.574-476.86 372.57-221.34l1.286 1.129 1.472-0.874c332.93-197.79 478.73-69.776 325.64 285.94l-0.677 1.572 1.286 1.129c291 255.52 214.3 433.74-171.31 398.06l-1.704-0.158-0.677 1.572c-153.09 355.71-346.28 337.84-431.52-39.922l-0.377-1.67-1.704-0.158c-385.61-35.675-428.31-224.94-95.378-422.73l1.472-0.874z"/>
	<path d="m511.1 723.48c-81.47-383.29 88.551-481.45 379.75-219.25l1.287 1.159 1.5-0.866c339.35-195.93 485.25-64.56 325.87 293.42l-0.704 1.582 1.287 1.159c291.2 262.2 211.35 441.55-178.36 400.59l-1.722-0.181-0.704 1.582c-159.38 357.97-354.63 337.45-436.1-45.836l-0.36-1.694-1.723-0.181c-389.7-40.96-430.52-232.99-91.17-428.92l1.5-0.866z"/>
	<path d="m509.11 717.59c-77.585-388.78 95.655-485.94 386.94-217.02l1.287 1.189 1.528-0.857c345.78-193.93 491.72-59.191 325.96 300.94l-0.733 1.592 1.287 1.189c291.29 268.93 208.24 449.36-185.48 403.01l-1.74-0.205-0.733 1.592c-165.75 360.13-363.02 336.91-440.6-51.87l-0.343-1.718-1.74-0.205c-393.73-46.352-432.6-241.14-86.822-435.06l1.528-0.857z"/>
	<path d="m507.21 711.62c-73.576-394.24 102.88-490.33 394.13-214.63l1.287 1.219 1.557-0.848c352.2-191.8 498.12-53.672 325.92 308.52l-0.761 1.601 1.287 1.219c291.25 275.7 204.97 457.16-192.7 405.31l-1.758-0.229-0.761 1.601c-172.2 362.19-371.44 336.21-445.02-58.024l-0.325-1.743-1.758-0.229c-397.68-51.851-434.54-249.37-82.335-441.17l1.557-0.848z"/>
	<path d="m505.41 705.59c-69.442-399.65 110.24-494.61 401.32-212.11l1.287 1.249 1.585-0.838c358.63-189.54 504.47-48.002 325.74 316.14l-0.79 1.61 1.287 1.249c291.09 282.51 201.54 464.95-200.01 407.49l-1.775-0.254-0.79 1.609c-178.73 364.14-379.91 335.35-449.35-64.295l-0.307-1.766-1.775-0.254c-401.55-57.455-436.34-257.69-77.709-447.23l1.585-0.838z"/>
	<path d="m503.71 699.48c-65.185-405.02 117.71-498.79 408.51-209.43l1.285 1.279 1.614-0.827c365.06-187.15 510.75-42.182 325.42 323.8l-0.819 1.618 1.285 1.279c290.8 289.35 197.95 472.72-207.39 409.55l-1.792-0.279-0.819 1.618c-185.33 365.98-388.41 334.34-453.6-70.684l-0.288-1.79-1.792-0.279c-405.34-63.164-438-266.09-72.945-453.24l1.614-0.827z"/>
	<path d="m502.11 693.31c-60.803-410.35 125.31-502.85 415.7-206.61l1.284 1.309 1.642-0.816c371.48-184.63 516.96-36.212 324.96 331.51l-0.849 1.625 1.284 1.309c290.39 296.24 194.19 480.47-214.86 411.5l-1.808-0.305-0.849 1.625c-192 367.72-396.95 333.16-457.75-77.188l-0.269-1.814-1.808-0.305c-409.05-68.976-439.52-274.57-68.043-459.2l1.642-0.816z"/>
	<path d="m500.61 687.07c-56.301-415.63 133.03-506.8 422.88-203.65l1.281 1.34 1.67-0.804c377.89-181.98 523.11-30.095 324.35 339.25l-0.878 1.633 1.281 1.34c289.85 303.16 190.27 488.2-222.41 413.31l-1.824-0.331-0.878 1.633c-198.75 369.34-405.51 331.82-461.81-83.807l-0.249-1.837-1.824-0.331c-412.68-74.891-440.89-283.13-63.003-465.11l1.67-0.804z"/>
	<path d="m499.22 680.77c-51.675-420.86 140.86-510.64 430.04-200.53l1.278 1.371 1.699-0.792c384.29-179.2 529.18-23.829 323.61 347.03l-0.909 1.639 1.278 1.371c289.18 310.11 186.19 495.91-230.04 415l-1.84-0.358-0.909 1.639c-205.57 370.86-414.1 330.32-465.78-90.539l-0.228-1.86-1.84-0.358c-416.23-80.907-442.12-291.76-57.827-470.96l1.699-0.792z"/>
	<path d="m497.93 674.4c-46.927-426.04 148.81-514.36 437.2-197.27l1.275 1.402 1.727-0.779c390.68-176.28 535.17-17.417 322.72 354.84l-0.939 1.645 1.275 1.401c288.38 317.09 181.94 503.59-237.75 416.57l-1.855-0.385-0.939 1.645c-212.45 372.26-422.72 328.66-469.65-97.382l-0.207-1.883-1.855-0.385c-419.69-87.022-443.2-300.47-52.514-476.76l1.727-0.779z"/>
	<path d="m496.74 667.97c-42.058-431.16 156.88-517.96 444.33-193.86l1.271 1.432 1.755-0.766c397.06-173.24 541.08-10.86 321.68 362.68l-0.97 1.651 1.271 1.433c287.46 324.1 177.53 511.25-245.52 418.01l-1.87-0.412-0.97 1.651c-219.4 373.54-431.36 326.83-473.42-104.34l-0.186-1.906-1.87-0.412c-423.06-93.236-444.13-309.26-47.066-482.49l1.755-0.766z"/>
	<path d="m495.66 661.48c-37.07-436.23 165.05-521.43 451.45-190.3l1.266 1.464 1.783-0.752c403.43-170.06 546.92-4.157 320.5 370.55l-1.001 1.656 1.266 1.464c286.4 331.13 172.96 518.86-253.38 419.32l-1.884-0.44-1.001 1.656c-226.42 374.71-440.02 324.83-477.09-111.4l-0.164-1.928-1.884-0.44c-426.34-99.547-444.91-318.11-41.483-488.16l1.783-0.752z"/>
	<path d="m494.7 654.94c-31.96-441.24 173.34-524.79 458.56-186.6l1.261 1.495 1.811-0.737c409.77-166.75 552.67 2.689 319.17 378.45l-1.032 1.661 1.261 1.495c285.21 338.19 168.23 526.45-261.3 420.49l-1.898-0.468-1.032 1.661c-233.5 375.76-448.7 322.67-480.66-118.57l-0.141-1.95-1.898-0.468c-429.53-105.96-445.54-327.03-35.768-493.78l1.811-0.737z"/>
	<path d="m493.84 648.33c-26.732-446.2 181.74-528.01 465.63-182.75l1.255 1.526 1.839-0.722c416.1-163.31 558.33 9.678 317.69 386.37l-1.064 1.665 1.255 1.526c283.89 345.27 163.33 534-269.29 421.54l-1.912-0.497-1.064 1.665c-240.64 376.69-457.39 320.35-484.12-125.85l-0.118-1.972-1.912-0.497c-432.62-112.46-446.01-336.01-29.915-499.31l1.839-0.722z"/>
	<path d="m493.09 641.68c-21.385-451.08 190.24-531.11 472.68-178.75l1.248 1.557 1.867-0.706c422.4-159.73 563.9 16.809 316.07 394.31l-1.095 1.669 1.248 1.557c282.44 352.36 158.27 541.5-277.34 422.45l-1.925-0.526-1.095 1.669c-247.84 377.5-466.09 317.86-487.47-133.23l-0.095-1.994-1.925-0.526c-435.62-119.05-446.33-345.05-23.932-504.78l1.867-0.706z"/>
	<path d="m492.46 634.97c-15.921-455.91 198.85-534.08 479.71-174.6l1.241 1.589 1.895-0.69c428.67-156.02 569.39 24.08 314.29 402.28l-1.128 1.672 1.241 1.589c280.86 359.48 153.05 548.96-285.46 423.22l-1.938-0.556-1.128 1.672c-255.1 378.2-474.8 315.2-490.72-140.71l-0.07-2.015-1.938-0.556c-438.51-125.74-446.49-354.16-17.816-510.18l1.895-0.69z"/>
	<path d="m491.94 628.2c-10.339-460.66 207.56-536.91 486.7-170.3l1.234 1.62 1.922-0.673c434.92-152.19 574.78 31.49 312.37 410.25l-1.16 1.674 1.234 1.62c279.14 366.61 147.67 556.38-293.65 423.85l-1.951-0.586-1.16 1.674c-262.41 378.76-483.51 312.37-493.85-148.3l-0.046-2.036-1.951-0.586c-441.31-132.52-446.49-363.32-11.57-515.5l1.922-0.673z"/>
	<path d="m491.53 621.39c-4.641-465.35 216.38-539.61 493.66-165.86l1.226 1.652 1.95-0.655c441.14-148.22 580.07 39.039 310.29 418.24l-1.192 1.676 1.226 1.652c277.28 373.75 142.12 563.74-301.89 424.35l-1.963-0.616-1.192 1.676c-269.77 379.21-492.23 309.37-496.87-155.98l-0.021-2.057-1.963-0.616c-444.01-139.39-446.34-372.54-5.194-520.75l1.95-0.655z"/>
	<path d="m491.24 614.54c1.172-469.97 225.29-542.17 500.58-161.27l1.217 1.684 1.977-0.637c447.33-144.11 585.26 46.724 308.07 426.25l-1.225 1.678 1.217 1.684c275.29 380.9 136.42 571.05-310.19 424.71l-1.974-0.647-1.225 1.677c-277.19 379.52-500.95 306.2-499.77-163.76l5e-3 -2.077-1.974-0.647c-446.61-146.34-446.02-381.81 1.311-525.92l1.977-0.637z"/>
	<path d="m491.06 607.63c7.099-474.51 234.3-544.6 507.47-156.53l1.207 1.715 2.004-0.618c453.48-139.88 590.34 54.544 305.69 434.26l-1.258 1.678 1.207 1.715c273.17 388.06 130.55 578.31-318.54 424.92l-1.985-0.678-1.258 1.678c-284.66 379.72-509.66 302.87-502.56-171.64l0.031-2.097-1.985-0.678c-449.09-153.38-445.54-391.12 7.946-531l2.004-0.618z"/>
	<path d="m491.01 600.68c13.14-478.98 243.41-546.88 514.31-151.65l1.197 1.747 2.031-0.599c459.6-135.52 595.33 62.499 303.16 442.28l-1.291 1.679 1.197 1.747c270.91 395.23 124.53 585.5-326.95 424.99l-1.996-0.709-1.291 1.679c-292.17 379.78-518.37 299.36-505.23-179.62l0.058-2.117-1.996-0.709c-451.48-160.51-444.89-400.49 14.707-536.01l2.031-0.599z"/>
	<path d="m491.07 593.7c19.294-483.37 252.6-549.02 521.12-146.62l1.187 1.779 2.058-0.579c465.68-131.02 600.2 70.586 300.48 450.3l-1.325 1.678 1.187 1.779c268.51 402.4 118.34 592.64-335.41 424.92l-2.006-0.741-1.325 1.678c-299.73 379.72-527.06 295.69-507.77-187.69l0.085-2.136-2.006-0.741c-453.75-167.72-444.08-409.9 21.591-540.92l2.058-0.579z"/>
	<path d="m491.26 586.67c25.558-487.68 261.89-551.01 527.87-141.44l1.176 1.81 2.085-0.559c471.71-126.4 604.97 78.804 297.64 458.33l-1.358 1.677 1.176 1.81c265.98 409.57 112 599.71-343.92 424.7l-2.015-0.774-1.358 1.677c-307.33 379.52-535.75 291.84-510.19-195.84l0.113-2.156-2.015-0.774c-455.92-175.01-443.11-419.34 28.599-545.74l2.085-0.559z"/>
	<path d="m491.56 579.6c31.934-491.91 271.27-552.86 534.58-136.12l1.164 1.842 2.111-0.538c477.7-121.64 609.62 87.153 294.65 466.35l-1.392 1.676 1.164 1.842c263.3 416.74 105.5 606.72-352.47 424.34l-2.024-0.806-1.392 1.676c-314.97 379.2-544.42 287.82-512.49-204.09l0.141-2.174-2.024-0.806c-457.97-182.38-441.97-428.84 35.734-550.47l2.111-0.538z"/>
	<path d="m491.99 572.5c38.419-496.06 280.74-554.55 541.23-130.65l1.151 1.874 2.138-0.516c483.65-116.75 614.16 95.629 291.51 474.37l-1.426 1.674 1.151 1.874c260.49 423.9 98.838 613.65-361.07 423.83l-2.033-0.839-1.426 1.674c-322.66 378.74-553.08 283.63-514.66-212.43l0.17-2.193-2.033-0.839c-459.91-189.83-440.66-438.36 42.993-555.11l2.138-0.516z"/>
	<path d="m492.54 565.36c45.012-500.12 290.28-556.1 547.83-125.04l1.138 1.905 2.164-0.494c489.55-111.74 618.58 104.23 288.21 482.38l-1.46 1.671 1.138 1.905c257.55 431.06 92.023 620.52-369.71 423.16l-2.041-0.872-1.46 1.671c-330.38 378.15-561.71 279.27-516.7-220.85l0.199-2.21-2.041-0.872c-461.73-197.35-439.18-447.92 50.37-559.66l2.164-0.494z"/>
	<path d="m493.22 558.19c51.711-504.09 299.91-557.49 554.37-119.28l1.125 1.937 2.19-0.471c495.4-106.59 622.88 112.96 284.75 490.38l-1.495 1.668 1.125 1.937c254.46 438.21 85.051 627.3-378.38 422.35l-2.048-0.906-1.495 1.668c-338.13 377.42-570.32 274.74-518.61-229.35l0.229-2.228-2.048-0.906c-463.44-204.95-437.53-457.51 57.868-564.1l2.19-0.471z"/>
	<path d="m494.02 550.99c58.517-507.97 309.62-558.73 560.86-113.38l1.11 1.968 2.215-0.448c501.19-101.32 627.06 121.81 281.14 498.37l-1.529 1.664 1.11 1.968c251.24 445.35 77.925 634.01-387.1 421.39l-2.055-0.94-1.529 1.664c-345.92 376.56-578.9 270.03-520.39-237.94l0.259-2.245-2.055-0.94c-465.02-212.62-435.71-467.12 65.484-568.44l2.215-0.448z"/>
	<path d="m494.94 543.76c65.428-511.76 319.41-559.81 567.28-107.34l1.096 2 2.241-0.424c506.93-95.916 631.12 130.78 277.38 506.35l-1.563 1.66 1.096 2c247.87 452.48 70.644 640.64-395.85 420.28l-2.062-0.974-1.563 1.66c-353.74 375.56-587.46 265.16-522.03-246.6l0.289-2.262-2.062-0.974c-466.49-220.37-433.71-476.77 73.218-572.68l2.241-0.424z"/>
	<path d="m496 536.5c72.442-515.45 329.27-560.74 573.64-101.15l1.08 2.031 2.266-0.4c512.61-90.387 635.04 139.88 273.46 514.31l-1.598 1.655 1.08 2.031c244.37 459.59 63.21 647.19-404.63 419.01l-2.068-1.009-1.598 1.655c-361.58 374.43-595.98 260.11-523.54-255.35l0.32-2.278-2.068-1.009c-467.84-228.18-431.54-486.43 81.067-576.82l2.266-0.4z"/>
	<path d="m497.18 529.22c79.559-519.05 339.2-561.5 579.93-94.819l1.064 2.063 2.291-0.375c518.23-84.731 638.84 149.09 269.39 522.24l-1.633 1.649 1.064 2.063c240.73 466.69 55.624 653.64-413.44 417.58l-2.073-1.043-1.633 1.649c-369.46 373.16-604.46 254.89-524.91-264.16l0.352-2.294-2.073-1.043c-469.06-236.06-429.2-496.12 89.03-580.85l2.291-0.375z"/>
	<path d="m498.48 521.92c86.776-522.55 349.2-562.11 586.15-88.348l1.047 2.094 2.315-0.349c523.79-78.949 642.51 158.41 265.16 530.16l-1.668 1.643 1.047 2.094c236.95 473.76 47.887 660.01-422.28 416.01l-2.078-1.079-1.668 1.643c-377.35 371.75-612.91 249.5-526.14-273.06l0.384-2.31-2.078-1.078c-470.16-244.01-426.69-505.81 97.108-584.76l2.315-0.349z"/>
	<path d="m499.92 514.6c94.093-525.96 359.28-562.55 592.3-81.737l1.03 2.125 2.339-0.323c529.29-73.041 646.04 167.85 260.77 538.05l-1.703 1.636 1.03 2.125c233.03 480.81 39.999 666.29-431.14 414.27l-2.082-1.114-1.703 1.636c-385.27 370.2-621.32 243.94-527.22-282.02l0.416-2.325-2.082-1.114c-471.14-252.02-424-515.53 105.29-588.57l2.339-0.323z"/>
	<path d="m501.49 507.26c101.51-529.25 369.41-562.83 598.38-74.986l1.012 2.156 2.364-0.296c534.72-67.009 649.43 177.41 256.22 545.92l-1.738 1.629 1.012 2.156c228.97 487.84 31.962 672.47-440.02 412.38l-2.086-1.15-1.738 1.629c-393.21 368.51-629.68 238.2-528.17-291.05l0.449-2.339-2.086-1.15c-471.98-260.09-421.13-525.25 113.59-592.26l2.363-0.296z"/>
	<path d="m503.18 499.91c109.02-532.45 379.61-562.94 604.38-68.097l0.993 2.187 2.387-0.269c540.08-60.852 652.69 187.07 251.53 553.75l-1.773 1.621 0.993 2.187c224.77 494.84 23.778 678.55-448.92 410.33l-2.089-1.186-1.773 1.621c-401.16 366.68-638 232.3-528.98-300.15l0.482-2.354-2.089-1.186c-472.7-268.22-418.08-534.98 122-595.84l2.387-0.269z"/>
	<path d="m505.01 492.54c116.63-535.54 389.86-562.88 610.29-61.069l0.974 2.218 2.411-0.241c545.37-54.572 655.81 196.84 246.67 561.55l-1.808 1.612 0.974 2.218c220.43 501.81 15.446 684.54-457.84 408.13l-2.092-1.222-1.808 1.612c-409.14 364.71-646.26 226.22-529.63-309.32l0.516-2.367-2.092-1.222c-473.29-276.41-414.86-544.72 130.51-599.29l2.411-0.241z"/>
	<path d="m506.97 485.16c124.33-538.52 400.18-562.66 616.13-53.904l0.954 2.249 2.434-0.213c550.58-48.17 658.78 206.72 241.66 569.32l-1.844 1.603 0.954 2.249c215.95 508.75 6.969 690.42-466.78 405.76l-2.094-1.258-1.844 1.603c-417.12 362.6-654.47 219.98-530.14-318.54l0.55-2.38-2.094-1.258c-473.74-284.66-411.45-554.46 139.13-602.63l2.434-0.213z"/>
	<path d="m509.06 477.77c132.12-541.39 410.55-562.26 621.88-46.603l0.934 2.279 2.456-0.184c555.72-41.646 661.61 216.71 236.5 577.04l-1.879 1.593 0.934 2.279c211.34 515.66-1.652 696.19-475.72 403.24l-2.095-1.295-1.879 1.593c-425.11 360.34-662.63 213.56-530.51-327.83l0.584-2.393-2.095-1.295c-474.07-292.95-407.88-564.2 147.85-605.85l2.456-0.184z"/>
	<path d="m511.28 470.37c140-544.16 420.97-561.69 627.55-39.168l0.913 2.31 2.479-0.155c560.79-35.001 664.29 226.79 231.17 584.73l-1.914 1.582 0.913 2.31c206.58 522.52-10.416 701.86-484.67 400.55l-2.096-1.332-1.914 1.582c-433.11 357.94-670.72 206.98-530.72-337.18l0.619-2.405-2.096-1.332c-474.26-301.3-404.12-573.93 156.67-608.94l2.479-0.155z"/>
	<path d="m513.64 462.97c147.98-546.8 431.44-560.95 633.12-31.598l0.891 2.34 2.501-0.125c565.77-28.236 666.82 236.98 225.7 592.37l-1.95 1.571 0.891 2.34c201.69 529.35-19.321 707.41-493.63 397.7l-2.096-1.369-1.95 1.571c-441.12 355.39-678.76 200.23-530.78-346.58l0.654-2.417-2.096-1.369c-474.31-309.71-400.17-583.66 165.59-611.9l2.501-0.125z"/>
	<path d="m516.13 455.56c156.04-549.34 441.95-560.04 638.61-23.895l0.869 2.37 2.522-0.094c570.67-21.353 669.2 247.26 220.07 599.97l-1.985 1.559 0.869 2.37c196.65 536.14-28.367 712.85-502.6 394.7l-2.096-1.406-1.985 1.559c-449.13 352.7-686.73 193.3-530.69-356.03l0.69-2.428-2.096-1.406c-474.23-318.16-396.06-593.38 174.61-614.74l2.522-0.094z"/>
	<path d="m518.76 448.16c164.18-551.75 452.51-558.94 644-16.06l0.846 2.4 2.544-0.063c575.48-14.352 671.42 257.64 214.28 607.51l-2.021 1.546 0.846 2.4c191.48 542.88-37.551 718.17-511.56 391.52l-2.095-1.444-2.021 1.546c-457.14 349.87-694.63 186.22-530.44-365.54l0.726-2.439-2.095-1.444c-474.01-326.65-391.75-603.09 183.73-617.44l2.544-0.063z"/>
	<path d="m521.51 440.75c172.42-554.05 463.11-557.68 649.29-8.095l0.823 2.429 2.565-0.032c580.21-7.234 673.49 268.11 208.34 615.01l-2.056 1.533 0.823 2.429c186.18 549.58-46.872 723.38-520.53 388.19l-2.094-1.482-2.056 1.533c-465.15 346.89-702.46 178.96-530.04-375.09l0.762-2.449-2.094-1.482c-473.65-335.19-387.27-612.78 192.94-620.01l2.565-0.032z"/>
</g>
</g>
</g>
</svg>
