<?xml version="1.0" encoding="UTF-8"?>
<!DOCTYPE svg  PUBLIC '-//W3C//DTD SVG 1.1//EN'  'http://www.w3.org/Graphics/SVG/1.1/DTD/svg11.dtd'>
<svg id="Layer_1" enable-background="new 0 0 1638 1646.516" version="1.1" viewBox="0 0 1638 1646.5" xml:space="preserve" xmlns="http://www.w3.org/2000/svg">
	<path d="m846.92 289.02v-192.68c184.48 74.078 329.9 203.92 417.94 415.69-61.89 219.07-228.37 344.25-468.49 403.33v-187.63c-215.59 116.82-377.62 254.02-456.14 422.99 75.304 176.72 247.3 353.59 432.54 399.4v-183.69c216.4 33.592 400.04-65.066 578.53-255.44 186.67-199.1 214.54-523.48 85.45-797.82-280.71-339.88-783.8-387.85-1123.7-107.14-339.88 280.71-387.85 783.8-107.14 1123.7-47.728-69.275-75.786-146.1-82.769-225.48-39.446-448.44 224.1-777.03 723.78-815.22z"/>
	<path d="m1591.2 610c-2.035-7.425-4.18-14.829-6.435-22.209 2.255 7.38 4.4 14.784 6.435 22.209-27.719-107.27-79.561-206.24-154.44-296.82 4.087 4.949 8.093 9.939 12.041 14.956-3.948-5.017-7.954-10.007-12.041-14.956 129.09 274.35 101.22 598.72-85.45 797.82-178.49 190.38-362.13 289.03-578.53 255.44v183.69c-185.23-45.805-357.24-222.67-432.54-399.4 78.521-168.98 240.55-306.18 456.14-422.99v187.63c240.12-59.081 406.6-184.26 468.49-403.33-88.036-211.77-233.45-341.61-417.94-415.69v192.68c-499.67 38.198-763.22 366.78-723.77 815.22 6.983 79.381 35.04 156.21 82.769 225.48 102.51 148.79 295.8 262.74 566.12 292.31 240.26 12.875 460.25-76.421 615.26-237.71l7e-3 -7e-3c115.35-120.03 194.72-279.92 219.65-467.27 14.495-108.94 8.969-211.3-15.774-307.05zm-1175 899.42c6.222 3.662 12.485 7.235 18.789 10.717-6.304-3.482-12.567-7.054-18.789-10.717z" fill="#f00"/>
</svg>
