<?xml version="1.0" encoding="UTF-8"?>
<!-- Created with Inkscape (http://www.inkscape.org/) -->
<svg width="64mm" height="64mm" version="1.1" viewBox="0 0 64 64" xmlns="http://www.w3.org/2000/svg">
 <g class="spin">
 <g transform="matrix(.98258 0 0 .98256 .047521 .052319)">
  <defs>
   <radialGradient id="radialGradient4065" cx="1416.8" cy="344.32" r="300.05" gradientTransform="translate(0,3.34e-4)" gradientUnits="userSpaceOnUse">
    <stop stop-color="#a00" offset="0"/>
    <stop stop-color="maroon" offset=".61587"/>
    <stop stop-color="maroon" offset=".82824"/>
    <stop stop-color="#2b0000" offset="1"/>
   </radialGradient>
   <radialGradient id="radialGradient4067" cx="1416.8" cy="344.32" r="300.08" gradientTransform="translate(0 -.011614)" gradientUnits="userSpaceOnUse">
    <stop stop-color="#2b0000" offset="0"/>
    <stop stop-color="red" offset=".57824"/>
    <stop stop-color="#ff2a2a" offset=".87329"/>
    <stop stop-color="#ffd5d5" offset="1"/>
   </radialGradient>
  </defs>
  <g transform="matrix(.098108 0 0 .098108 -106.48 -1.2657)">
   <path d="m1417 44.266c-103.87 4e-3 -204.86 53.995-260.34 150.5-82.585 143.64-33.105 327.04 110.53 409.62 143.64 82.585 327.04 33.105 409.62-110.53 82.585-143.64 33.074-327.04-110.56-409.62-47.131-27.098-98.525-39.971-149.25-39.969zm147.81 102.59c18.958 2e-5 38.164 4.8082 55.781 14.938 53.691 30.87 72.214 99.403 41.344 153.09-27.472 47.78-84.78 67.673-134.91 49.719-4.7031 25.733-18.17 48.404-37.219 64.781 40.838 34.267 52.533 93.887 25.031 141.72-30.87 53.691-99.403 72.183-153.09 41.312-53.691-30.87-72.183-99.403-41.312-153.09 6.5255-11.349 14.73-21.117 24.125-29.188-19.333-16.276-33.098-38.958-38-64.781-29.726 10.435-63.639 8.3415-93.094-8.5938-53.691-30.87-72.183-99.372-41.312-153.06 30.87-53.691 99.403-72.214 153.09-41.344 29.452 16.934 48.31 45.22 54.25 76.156 11.65-4.0992 24.167-6.3438 37.219-6.3438 13.221 0 25.91 2.2987 37.688 6.5 2.2468-12.186 6.5648-24.207 13.094-35.562 20.741-36.073 58.494-56.25 97.312-56.25z" fill="url(#radialGradient4065)"/>
   <g transform="matrix(-.56484 0 0 -.56484 632.24 729.05)">
    <g stroke="#b96e10" stroke-width=".025">
     <g transform="matrix(-.5 .86603 .86603 .5 -2663.5 1537.4)">
      <path d="m-1541.9 781.83c0.1306-0.12022 33.066-19.351 73.189-42.734 42.244-24.619 72.989-42.391 73.042-42.219 0.05 0.16313 0.1536 19.393 0.2313 42.734l0.1413 42.438h-73.42c-41.927 0-73.318-0.0938-73.183-0.21859z" fill="#9c1919"/>
      <path d="m-1542.2 781.24c0.1089-0.28374 68.037-118.24 72.032-125.08l1.0294-1.7632 35.875 20.684c19.731 11.376 36.129 20.837 36.439 21.023 0.53 0.31841-3.8026 2.8853-71.237 42.204-39.491 23.026-72.358 42.186-73.039 42.579-0.781 0.45043-1.1864 0.58136-1.0996 0.35507z" fill="#ff2a2a"/>
     </g>
     <g transform="matrix(-.49821 -.86706 -.86706 .49821 -1486.8 -860.44)">
      <path d="m-1541.9 781.83c0.1306-0.12022 33.066-19.351 73.189-42.734 42.244-24.619 72.989-42.391 73.042-42.219 0.05 0.16313 0.1536 19.393 0.2313 42.734l0.1413 42.438h-73.42c-41.927 0-73.318-0.0938-73.183-0.21859z" fill="#f00"/>
      <path d="m-1542.2 781.24c0.1089-0.28374 68.037-118.24 72.032-125.08l1.0294-1.7632 35.875 20.684c19.731 11.376 36.129 20.837 36.439 21.023 0.53 0.31841-3.8026 2.8853-71.237 42.204-39.491 23.026-72.358 42.186-73.039 42.579-0.781 0.45043-1.1864 0.58136-1.0996 0.35507z" fill="#9c1919"/>
     </g>
     <g transform="matrix(-.44852 -.89377 -.89377 .44852 -1421.5 -873.7)">
      <path d="m-1395 739.63c0-27.906 0.085-42.347 0.248-42.292 0.5241 0.17614 146.44 84.336 146.29 84.375-0.087 0.0229-33.093 0.0981-73.346 0.16708l-73.188 0.12545v-42.375z" fill="#f00"/>
      <path d="m-1321.7 738.97c-40.322-23.256-73.312-42.402-73.312-42.548 0-0.23518 72.184-42.477 72.922-42.674 0.1683-0.0449 16.064 27.181 36.59 62.671 19.961 34.512 36.572 63.228 36.914 63.812 0.3419 0.58437 0.5266 1.0533 0.4104 1.0421s-33.202-19.048-73.524-42.304z" fill="#ff2a2a"/>
     </g>
    </g>
    <path transform="matrix(1.2145 -.44061 .44061 1.2145 165.96 -154.46)" d="m-1275.7 308.23-215.02-77.834 174.92-147.3z" fill="#e6e6e6"/>
    <g fill="none" stroke="#b96e10" stroke-width=".1">
     <path d="m-1395.4 526.2 0.1852 255.86"/>
     <path d="m-1247.5 781.95-221.7-127.77"/>
     <path d="m-1542.9 782.16 221.04-128.86"/>
    </g>
    <g stroke="#b96e10" stroke-width=".025">
     <path d="m-1395.1 627.49c-0.095-37.434-0.1369-75.398-0.093-84.363l0.079-16.3 35.875 62.031c19.731 34.117 36.173 62.55 36.537 63.183l0.6615 1.1522-36.332 21.179c-19.983 11.649-36.382 21.179-36.443 21.179s-0.1883-30.628-0.2831-68.062z" fill="#9c1919"/>
     <path d="m-1432.3 675.2c-20.041-11.56-36.438-21.123-36.438-21.25 0-0.1272 16.453-28.777 36.562-63.665l36.562-63.434 0.063 84.523c0.035 46.487-0.022 84.595-0.125 84.684-0.1033 0.0889-16.585-9.2969-36.625-20.857z" fill="#f00"/>
     <path d="m-1541.9 781.83c0.1306-0.12022 33.066-19.351 73.189-42.734 42.244-24.619 72.989-42.391 73.042-42.219 0.05 0.16313 0.1536 19.393 0.2313 42.734l0.1413 42.438h-73.42c-41.927 0-73.318-0.0938-73.183-0.21859z" fill="#9c1919"/>
     <path d="m-1542.2 781.24c0.1089-0.28374 68.037-118.24 72.032-125.08l1.0294-1.7632 35.875 20.684c19.731 11.376 36.129 20.837 36.439 21.023 0.53 0.31841-3.8026 2.8853-71.237 42.204-39.491 23.026-72.358 42.186-73.039 42.579-0.781 0.45043-1.1864 0.58136-1.0996 0.35507z" fill="#ff2a2a"/>
     <g transform="translate(-.23783 -.14731)">
      <path d="m-1395 739.63c0-27.906 0.085-42.347 0.248-42.292 0.5241 0.17614 146.44 84.336 146.29 84.375-0.087 0.0229-33.093 0.0981-73.346 0.16708l-73.188 0.12545v-42.375z" fill="#f00"/>
      <path d="m-1321.7 738.97c-40.322-23.256-73.312-42.402-73.312-42.548 0-0.23518 72.184-42.477 72.922-42.674 0.1683-0.0449 16.064 27.181 36.59 62.671 19.961 34.512 36.572 63.228 36.914 63.812 0.3419 0.58437 0.5266 1.0533 0.4104 1.0421s-33.202-19.048-73.524-42.304z" fill="#ff2a2a"/>
     </g>
    </g>
   </g>
   <path d="m1620.3 123.84c-76.4-70.378-187.2-99.107-293.4-65.735-158.1 49.665-246 218.08-196.3 376.14 49.669 158.07 218.07 245.96 376.14 196.29 158.07-49.669 245.93-218.1 196.26-376.16-16.298-51.865-45.371-96.158-82.676-130.53zm39.182 175.61c13.942 12.847 24.808 29.397 30.9 48.784 18.566 59.084-14.252 122.04-73.336 140.6-52.579 16.522-108.2-7.6825-132.9-54.853-20.896 15.737-46.162 23.284-71.268 22.42 6.812 52.873-24.988 104.64-77.624 121.18-59.084 18.566-122.01-14.274-140.58-73.359-18.566-59.084 14.274-122.01 73.359-140.58 12.49-3.9245 25.142-5.5485 37.52-5.1169-3.1888-25.07 2.0581-51.078 15.952-73.39-28.932-12.47-52.453-36.989-62.638-69.403-18.566-59.084 14.253-121.99 73.338-140.56 59.084-18.566 122.04 14.252 140.6 73.336 10.184 32.41 4.8855 65.992-11.71 92.767 11.345 4.8797 22.071 11.711 31.67 20.555 9.7225 8.9586 17.497 19.248 23.311 30.318 9.91-7.4394 21.231-13.354 33.727-17.28 39.697-12.474 81.133-1.7299 109.68 24.575z" fill="url(#radialGradient4067)" stroke="#ac1d00" stroke-linecap="round" stroke-linejoin="round" stroke-width="1.5"/>
  </g>
 </g>
 </g>
</svg>
