<?xml version="1.0" encoding="UTF-8"?><!-- Created with Inkscape (http://www.inkscape.org/) --><svg width="64mm" height="64mm" version="1.1" viewBox="0 0 64 64" xmlns="http://www.w3.org/2000/svg" xmlns:xlink="http://www.w3.org/1999/xlink"> <g class="spin">  <defs>   <radialGradient id="radialGradient4069" cx="386.09" cy="388.03" r="300" gradientTransform="matrix(0 1 -.99573 0 772.47 1.9375)" gradientUnits="userSpaceOnUse">    <stop stop-color="#f60" offset="0"/>    <stop stop-color="#f60" offset=".53309"/>    <stop stop-color="#a40" offset=".90891"/>    <stop stop-color="#803300" offset="1"/>   </radialGradient>   <linearGradient id="linearGradient4071" x1="84.875" x2="687.31" y1="388.03" y2="388.03" gradientUnits="userSpaceOnUse" xlink:href="#linearGradient3905"/>   <linearGradient id="linearGradient3905">    <stop stop-color="#ffffad" offset="0"/>    <stop stop-color="#ffd736" offset=".53309"/>    <stop stop-color="#ff8d00" offset=".90891"/>    <stop stop-color="#fff0d6" offset="1"/>   </linearGradient>   <radialGradient id="radialGradient4073" cx="383.36" cy="434.1" r="166.68" gradientUnits="userSpaceOnUse" xlink:href="#linearGradient3905"/>   <radialGradient id="radialGradient4075" cx="386.09" cy="388.03" r="300" gradientTransform="matrix(0 -1 .99573 0 -.28028 774.12)" gradientUnits="userSpaceOnUse">    <stop stop-color="#ffffad" offset="0"/>    <stop stop-color="#ffd736" offset=".53309"/>    <stop stop-color="#ff8d00" offset=".90891"/>    <stop stop-color="#fff0d6" offset="1"/>   </radialGradient>   <linearGradient id="linearGradient4077" x1="84.875" x2="687.31" y1="388.03" y2="388.03" gradientTransform="rotate(180,386.1,388.03)" gradientUnits="userSpaceOnUse" xlink:href="#linearGradient3905"/>  </defs>  <g transform="matrix(.096262 0 0 .095866 -5.1617 -5.199)">   <path d="m387.38 88.031c-33.735 0-66.173 5.5764-96.438 15.844 49.151-3.8118 98.297 20.82 123.5 66.875 10.713 19.577 15.842 40.712 15.906 61.562 0.0519 16.863-3.2238 33.537-9.5 49.062 15.11 4.9198 28.814 12.973 40.344 23.375 10.452-13.247 23.7-24.638 39.438-33.25 62.647-34.282 141.25-11.303 175.53 51.344 2.6783 4.8943 5.0146 9.8773 7 14.938-23.92-141.75-147.23-249.75-295.78-249.75zm-190.76 68.469c-66.724 55.024-109.25 138.29-109.25 231.53 0 84.038 34.543 160.01 90.219 214.47-1.0339-1.7003-2.035-3.424-3-5.1875-34.282-62.647-11.303-141.22 51.344-175.5 15.829-8.6618 32.672-13.678 49.562-15.312-0.99736-6.0134-1.5312-12.173-1.5312-18.469 0-9.677 1.2266-19.074 3.5312-28.031 3e-3 -0.01-3e-3 -0.0214 0-0.0312-36.895-6.8472-70.523-29.585-89.938-65.062-24.85-45.42-19.58-99.2 9.06-138.41zm488.19 270.91c-10.156 29.22-30.754 54.916-60.031 70.938-54.816 29.997-121.83 16.148-160.69-29.75-14.333 13.88-32.367 23.973-52.469 28.656 3.8048 12.329 5.6802 24.946 5.7188 37.469 0.1413 45.871-24.18 90.4-67.25 113.97-26.42 14.458-55.682 18.722-83.25 14.125 36.889 16.204 77.657 25.219 120.53 25.219 152.34 0 278.16-113.54 297.44-260.62z" fill="url(#radialGradient4069)" stroke="url(#linearGradient4071)" stroke-width="5"/>   <path transform="matrix(.67811 0 0 .67811 126.14 93.666)" d="m548.73 434.1c0 91.332-74.039 165.37-165.37 165.37-91.332 0-165.37-74.039-165.37-165.37 0-91.332 74.039-165.37 165.37-165.37 91.332 0 165.37 74.039 165.37 165.37z" fill="url(#radialGradient4073)" stroke="#ac5800" stroke-width="2.622"/>   <path d="m87.375 348.66c10.156-29.22 30.754-54.916 60.031-70.938 62.647-34.282 141.22-11.303 175.5 51.344 34.282 62.647 11.303 141.22-51.344 175.5-62.647 34.282-141.25 11.303-175.53-51.344-2.6783-4.8943-5.0146-9.8773-7-14.938 23.913 141.76 147.22 249.75 295.78 249.75 33.735 0 66.173-5.5764 96.438-15.844-49.151 3.8118-98.297-20.82-123.5-66.875-10.713-19.577-15.842-40.712-15.906-61.562-0.1413-45.871 24.18-90.4 67.25-113.97 62.647-34.282 141.25-11.272 175.53 51.375 24.853 45.416 19.578 99.194-9.0625 138.41 66.724-55.024 109.25-138.29 109.25-231.53 0-84.038-34.543-160.01-90.219-214.47 1.0339 1.7003 2.035 3.424 3 5.1875 34.282 62.647 11.303 141.22-51.344 175.5-62.647 34.282-141.22 11.303-175.5-51.344-10.713-19.577-15.842-40.712-15.906-61.562-0.1413-45.871 24.18-90.4 67.25-113.97 26.42-14.458 55.682-18.722 83.25-14.125-36.89-16.214-77.65-25.229-120.53-25.229-152.34 0-278.16 113.55-297.44 260.63z" fill="url(#radialGradient4075)" stroke="url(#linearGradient4077)" stroke-width="5"/>  </g> </g></svg>